<svg width="18" height="18" viewBox="0 0 18 18" fill="none" xmlns="http://www.w3.org/2000/svg">
<g id="tabler:calendar">
<path id="Vector" d="M11.998 2.25V5.25M5.99805 2.25V5.25M2.99805 8.25H14.998M8.24805 11.25H8.99804V13.5M2.99805 5.25C2.99805 4.85218 3.15608 4.47064 3.43739 4.18934C3.71869 3.90804 4.10022 3.75 4.49805 3.75H13.498C13.8959 3.75 14.2774 3.90804 14.5587 4.18934C14.84 4.47064 14.998 4.85218 14.998 5.25V14.25C14.998 14.6478 14.84 15.0294 14.5587 15.3107C14.2774 15.592 13.8959 15.75 13.498 15.75H4.49805C4.10022 15.75 3.71869 15.592 3.43739 15.3107C3.15608 15.0294 2.99805 14.6478 2.99805 14.25V5.25Z" stroke="#2A295C" stroke-linecap="round" stroke-linejoin="round"/>
</g>
</svg>
