<svg width="20" height="20" viewBox="0 0 20 20" fill="none" xmlns="http://www.w3.org/2000/svg">
<g id="carbon:hotel">
<g id="Group 47624">
<path id="Vector" d="M5.82227 9.35603C6.01298 9.35603 6.19942 9.41258 6.35799 9.51854C6.51657 9.6245 6.64017 9.7751 6.71315 9.9513C6.78613 10.1275 6.80523 10.3214 6.76802 10.5084C6.73082 10.6955 6.63898 10.8673 6.50412 11.0022C6.36926 11.137 6.19744 11.2289 6.01039 11.2661C5.82334 11.3033 5.62945 11.2842 5.45325 11.2112C5.27705 11.1382 5.12645 11.0146 5.02049 10.856C4.91453 10.6975 4.85798 10.511 4.85798 10.3203C4.85798 10.0646 4.95957 9.8193 5.14041 9.63846C5.32125 9.45762 5.56652 9.35603 5.82227 9.35603ZM5.82227 8.07031C5.37726 8.07031 4.94224 8.20227 4.57223 8.44951C4.20222 8.69674 3.91383 9.04814 3.74354 9.45928C3.57324 9.87041 3.52868 10.3228 3.6155 10.7593C3.70232 11.1957 3.91661 11.5966 4.23128 11.9113C4.54594 12.226 4.94686 12.4403 5.38331 12.5271C5.81977 12.6139 6.27217 12.5693 6.6833 12.399C7.09444 12.2287 7.44584 11.9404 7.69307 11.5703C7.94031 11.2003 8.07227 10.7653 8.07227 10.3203C8.07227 9.72358 7.83521 9.15128 7.41326 8.72932C6.9913 8.30737 6.419 8.07031 5.82227 8.07031Z" fill="#FCBD4C"/>
<path id="Vector_2" d="M15.7857 8.71257H10.6429C10.3019 8.71257 9.97484 8.84803 9.73372 9.08915C9.4926 9.33027 9.35714 9.65729 9.35714 9.99829V13.8554H2.28571V6.52686L10 2.374L18.055 6.70686L18.6593 5.57543L10.3021 1.07543C10.2091 1.0259 10.1054 1 10 1C9.89463 1 9.79087 1.0259 9.69786 1.07543L1.34071 5.57543C1.23806 5.63009 1.15216 5.71157 1.09216 5.81119C1.03216 5.91081 1.00031 6.02485 1 6.14114V18.9983H2.28571V15.1411H17.7143V18.9983H19V11.9269C19 11.0744 18.6614 10.2568 18.0586 9.65401C17.4558 9.05122 16.6382 8.71257 15.7857 8.71257ZM10.6429 13.8554V9.99829H15.7857C16.2972 9.99829 16.7877 10.2015 17.1494 10.5632C17.5111 10.9248 17.7143 11.4154 17.7143 11.9269V13.8554H10.6429Z" fill="#FCBD4C"/>
</g>
</g>
</svg>
