<svg width="24" height="24" viewBox="0 0 24 24" fill="none" xmlns="http://www.w3.org/2000/svg">
<g id="Frame 1597882750">
<g id="Layer 3">
<path id="Vector" d="M4.20046 20.5455H5.10955V20.7273C5.10996 21.0647 5.24418 21.3882 5.48278 21.6268C5.72137 21.8654 6.04486 21.9996 6.38228 22H17.7175C17.8847 22.0004 18.0503 21.9677 18.2048 21.9037C18.3592 21.8397 18.4995 21.7457 18.6174 21.6271L21.1003 19.1442C21.2189 19.0263 21.3129 18.8861 21.3769 18.7316C21.4409 18.5771 21.4736 18.4115 21.4732 18.2443V5.45454C21.4728 5.11712 21.3386 4.79364 21.1 4.55504C20.8614 4.31645 20.5379 4.18223 20.2005 4.18182H20.0186V3.27273C20.0182 2.9353 19.884 2.61182 19.6454 2.37323C19.4068 2.13463 19.0833 2.00041 18.7459 2H4.20046C3.86304 2.00041 3.53955 2.13463 3.30096 2.37323C3.06237 2.61182 2.92814 2.9353 2.92773 3.27273V19.2727C2.92814 19.6101 3.06237 19.9336 3.30096 20.1722C3.53955 20.4108 3.86304 20.545 4.20046 20.5455ZM18.5641 20.1378V19.2727C18.5647 19.2247 18.584 19.1788 18.618 19.1448C18.6519 19.1108 18.6979 19.0915 18.7459 19.0909H19.611L18.5641 20.1378ZM20.3823 5.45454V18H18.7459C18.4085 18.0004 18.085 18.1346 17.8464 18.3732C17.6078 18.6118 17.4736 18.9353 17.4732 19.2727V20.9091H6.38228C6.33409 20.909 6.28789 20.8898 6.25382 20.8557C6.21974 20.8217 6.20055 20.7755 6.20046 20.7273V5.45454C6.20055 5.40635 6.21974 5.36016 6.25382 5.32608C6.28789 5.292 6.33409 5.27282 6.38228 5.27273H20.2005C20.2487 5.27282 20.2948 5.292 20.3289 5.32608C20.363 5.36016 20.3822 5.40635 20.3823 5.45454ZM4.01864 3.27273C4.01921 3.22468 4.03855 3.17876 4.07252 3.14479C4.1065 3.11081 4.15242 3.09148 4.20046 3.09091H18.7459C18.794 3.09148 18.8399 3.11081 18.8739 3.14479C18.9078 3.17876 18.9272 3.22468 18.9277 3.27273V4.18182H6.38228C6.04486 4.18223 5.72137 4.31645 5.48278 4.55504C5.24418 4.79364 5.10996 5.11712 5.10955 5.45454V19.4545H4.20046C4.15242 19.454 4.1065 19.4346 4.07252 19.4007C4.03855 19.3667 4.01921 19.3208 4.01864 19.2727V3.27273Z" fill="#2A295C"/>
<path id="Vector_2" d="M15.8377 18H8.56499C8.42032 18 8.28158 18.0575 8.17929 18.1598C8.077 18.2621 8.01953 18.4008 8.01953 18.5455C8.01953 18.6901 8.077 18.8289 8.17929 18.9311C8.28158 19.0334 8.42032 19.0909 8.56499 19.0909H15.8377C15.9824 19.0909 16.1211 19.0334 16.2234 18.9311C16.3257 18.8289 16.3832 18.6901 16.3832 18.5455C16.3832 18.4008 16.3257 18.2621 16.2234 18.1598C16.1211 18.0575 15.9824 18 15.8377 18Z" fill="#2A295C"/>
<path id="Vector_3" d="M18.0195 15.8164H8.56499C8.42032 15.8164 8.28158 15.8739 8.17929 15.9762C8.077 16.0785 8.01953 16.2172 8.01953 16.3619C8.01953 16.5065 8.077 16.6453 8.17929 16.7476C8.28158 16.8498 8.42032 16.9073 8.56499 16.9073H18.0195C18.1642 16.9073 18.3029 16.8498 18.4052 16.7476C18.5075 16.6453 18.565 16.5065 18.565 16.3619C18.565 16.2172 18.5075 16.0785 18.4052 15.9762C18.3029 15.8739 18.1642 15.8164 18.0195 15.8164Z" fill="#2A295C"/>
<path id="Vector_4" d="M18.0195 13.6367H8.56499C8.42032 13.6367 8.28158 13.6942 8.17929 13.7965C8.077 13.8988 8.01953 14.0375 8.01953 14.1822C8.01953 14.3268 8.077 14.4656 8.17929 14.5679C8.28158 14.6702 8.42032 14.7276 8.56499 14.7276H18.0195C18.1642 14.7276 18.3029 14.6702 18.4052 14.5679C18.5075 14.4656 18.565 14.3268 18.565 14.1822C18.565 14.0375 18.5075 13.8988 18.4052 13.7965C18.3029 13.6942 18.1642 13.6367 18.0195 13.6367Z" fill="#2A295C"/>
<path id="Vector_5" d="M18.0195 6.72656H8.56499C8.42033 6.7266 8.28162 6.78408 8.17933 6.88636C8.07705 6.98865 8.01957 7.12737 8.01953 7.27202V11.6357C8.01957 11.7803 8.07705 11.919 8.17933 12.0213C8.28162 12.1236 8.42033 12.1811 8.56499 12.1811H18.0195C18.1642 12.1811 18.3029 12.1236 18.4052 12.0213C18.5075 11.919 18.5649 11.7803 18.565 11.6357V7.27202C18.5649 7.12737 18.5075 6.98865 18.4052 6.88636C18.3029 6.78408 18.1642 6.7266 18.0195 6.72656ZM17.4741 11.0902H9.11044V7.81747H17.4741V11.0902Z" fill="#2A295C"/>
</g>
</g>
</svg>
