<svg width="20" height="20" viewBox="0 0 20 20" fill="none" xmlns="http://www.w3.org/2000/svg">
<g id="ion:bus-outline">
<path id="Vector" d="M16.6673 4H4.66732C3.93094 4 3.33398 4.59695 3.33398 5.33333V10.6667C3.33398 11.403 3.93094 12 4.66732 12H16.6673C17.4037 12 18.0007 11.403 18.0007 10.6667V5.33333C18.0007 4.59695 17.4037 4 16.6673 4Z" stroke="black" stroke-linecap="round" stroke-linejoin="round"/>
<path id="Vector_2" d="M16.6673 12H4.66732C3.93094 12 3.33398 12.597 3.33398 13.3333V16C3.33398 16.7364 3.93094 17.3333 4.66732 17.3333H16.6673C17.4037 17.3333 18.0007 16.7364 18.0007 16V13.3333C18.0007 12.597 17.4037 12 16.6673 12Z" stroke="#283897" stroke-linecap="round" stroke-linejoin="round"/>
<path id="Vector_3" d="M16.6673 3.9987H4.66732C4.314 3.99771 3.97544 3.85692 3.7256 3.60708C3.47577 3.35725 3.33497 3.01868 3.33398 2.66536C3.33497 2.31205 3.47577 1.97348 3.7256 1.72365C3.97544 1.47381 4.314 1.33302 4.66732 1.33203H16.6673C17.0206 1.33302 17.3592 1.47381 17.609 1.72365C17.8589 1.97348 17.9997 2.31205 18.0007 2.66536C17.9997 3.01868 17.8589 3.35725 17.609 3.60708C17.3592 3.85692 17.0206 3.99771 16.6673 3.9987ZM6.00065 17.332V18.2487C6.00065 18.3592 5.95675 18.4652 5.87861 18.5433C5.80047 18.6215 5.69449 18.6654 5.58398 18.6654H4.41732C4.30681 18.6654 4.20083 18.6215 4.12269 18.5433C4.04455 18.4652 4.00065 18.3592 4.00065 18.2487V17.332H6.00065ZM17.334 17.332V18.2487C17.334 18.3592 17.2901 18.4652 17.2119 18.5433C17.1338 18.6215 17.0278 18.6654 16.9173 18.6654H15.7507C15.6401 18.6654 15.5342 18.6215 15.456 18.5433C15.3779 18.4652 15.334 18.3592 15.334 18.2487V17.332H17.334Z" stroke="#283897" stroke-linecap="round" stroke-linejoin="round"/>
<path id="Vector_4" d="M15.3327 15.3333C15.7009 15.3333 15.9993 15.0349 15.9993 14.6667C15.9993 14.2985 15.7009 14 15.3327 14C14.9645 14 14.666 14.2985 14.666 14.6667C14.666 15.0349 14.9645 15.3333 15.3327 15.3333Z" stroke="#283897" stroke-linejoin="round"/>
<path id="Vector_5" d="M6.00065 15.3333C6.36884 15.3333 6.66732 15.0349 6.66732 14.6667C6.66732 14.2985 6.36884 14 6.00065 14C5.63246 14 5.33398 14.2985 5.33398 14.6667C5.33398 15.0349 5.63246 15.3333 6.00065 15.3333Z" stroke="#283897" stroke-linejoin="round"/>
<path id="Vector_6" d="M10.6673 3.9974V11.9974M3.33398 2.66406V14.6641M18.0007 2.66406V14.6641" stroke="#283897" stroke-linecap="round" stroke-linejoin="round"/>
</g>
</svg>
