<svg width="20" height="20" viewBox="0 0 20 20" fill="none" xmlns="http://www.w3.org/2000/svg">
<g id="material-symbols-light:local-library-outline">
<path id="Vector" d="M10.0009 18.7796C8.92528 17.9019 7.73689 17.2095 6.43575 16.7023C5.13462 16.1952 3.76802 15.8924 2.33594 15.794V6.8394C3.80123 6.92563 5.1937 7.27535 6.51336 7.88855C7.83238 8.50175 8.99491 9.26122 10.0009 10.167C11.007 9.26122 12.1695 8.50175 13.4885 7.88855C14.8075 7.27535 16.2 6.92563 17.6659 6.8394V15.794C16.23 15.8924 14.8625 16.1952 13.5632 16.7023C12.264 17.2095 11.0766 17.9019 10.0009 18.7796ZM10.0009 17.5781C11.007 16.8397 12.0769 16.2444 13.2107 15.7921C14.3444 15.3399 15.5102 15.0403 16.7078 14.8934V7.91633C15.4559 8.12393 14.2611 8.52762 13.1235 9.1274C11.9859 9.72719 10.945 10.4988 10.0009 11.4422C9.0575 10.4988 8.01666 9.72687 6.87841 9.12644C5.74016 8.52602 4.54537 8.12233 3.29406 7.91537V14.8953C4.49172 15.0403 5.65744 15.3392 6.79122 15.7921C7.925 16.245 8.99491 16.8403 10.0009 17.5781ZM10.0009 6.76562C9.14948 6.76562 8.42067 6.46254 7.8145 5.85636C7.20832 5.24955 6.90524 4.52074 6.90524 3.66992C6.90524 2.81911 7.20864 2.09061 7.81545 1.48444C8.42227 0.878265 9.15076 0.574859 10.0009 0.57422C10.8511 0.573581 11.5799 0.876987 12.1874 1.48444C12.7948 2.09189 13.0979 2.82038 13.0966 3.66992C13.0954 4.51946 12.792 5.24827 12.1864 5.85636C11.5809 6.46445 10.8524 6.76754 10.0009 6.76562ZM10.0009 5.8075C10.5892 5.8075 11.0926 5.59831 11.5109 5.17993C11.9293 4.76155 12.1385 4.25821 12.1385 3.66992C12.1385 3.08163 11.929 2.5783 11.51 2.15992C11.091 1.74154 10.5879 1.53266 10.0009 1.5333C9.41393 1.53394 8.91091 1.74313 8.49189 2.16087C8.07287 2.57862 7.86368 3.08195 7.86432 3.67088C7.86496 4.25981 8.07447 4.76282 8.49285 5.17993C8.91123 5.59703 9.41393 5.80622 10.0009 5.8075Z" fill="#EF661A"/>
</g>
</svg>
