<svg width="24" height="24" viewBox="0 0 24 24" fill="none" xmlns="http://www.w3.org/2000/svg">
<g id="material-symbols-light:event-note-outline">
<path id="Vector" d="M5.616 20.9995C5.15533 20.9995 4.771 20.8455 4.463 20.5375C4.155 20.2295 4.00067 19.8452 4 19.3845V6.61453C4 6.15453 4.15433 5.77053 4.463 5.46253C4.77167 5.15453 5.156 5.0002 5.616 4.99953H7.385V2.76953H8.462V4.99953H15.616V2.76953H16.616V4.99953H18.385C18.845 4.99953 19.2293 5.15386 19.538 5.46253C19.8467 5.7712 20.0007 6.15553 20 6.61553V19.3845C20 19.8445 19.846 20.2289 19.538 20.5375C19.23 20.8462 18.8453 21.0002 18.384 20.9995H5.616ZM5.616 19.9995H18.385C18.5383 19.9995 18.6793 19.9355 18.808 19.8075C18.9367 19.6795 19.0007 19.5382 19 19.3835V10.6155H5V19.3845C5 19.5379 5.064 19.6789 5.192 19.8075C5.32 19.9362 5.461 20.0002 5.615 19.9995M5 9.61453H19V6.61453C19 6.4612 18.936 6.3202 18.808 6.19153C18.68 6.06286 18.5387 5.99886 18.384 5.99953H5.616C5.462 5.99953 5.32067 6.06353 5.192 6.19153C5.06333 6.31953 4.99933 6.46086 5 6.61553V9.61453ZM7.5 13.4995V12.4995H16.5V13.4995H7.5ZM7.5 17.4995V16.4995H13.5V17.4995H7.5Z" fill="#2A295C"/>
</g>
</svg>
