<svg width="24" height="25" viewBox="0 0 24 25" fill="none" xmlns="http://www.w3.org/2000/svg">
<g id="material-symbols:feed-outline">
<path id="Vector" d="M5 21.5C4.45 21.5 3.97933 21.3043 3.588 20.913C3.19667 20.5217 3.00067 20.0507 3 19.5V5.5C3 4.95 3.196 4.47933 3.588 4.088C3.98 3.69667 4.45067 3.50067 5 3.5H16L21 8.5V19.5C21 20.05 20.8043 20.521 20.413 20.913C20.0217 21.305 19.5507 21.5007 19 21.5H5ZM5 19.5H19V9.5H15V5.5H5V19.5ZM7 17.5H17V15.5H7V17.5ZM7 9.5H12V7.5H7V9.5ZM7 13.5H17V11.5H7V13.5Z" fill="white"/>
</g>
</svg>
