<svg width="20" height="20" viewBox="0 0 20 20" fill="none" xmlns="http://www.w3.org/2000/svg">
<g id="mingcute:book-5-line">
<g id="Group">
<path id="Vector" fill-rule="evenodd" clip-rule="evenodd" d="M2.5 3.33464C2.5 2.89261 2.67559 2.46868 2.98816 2.15612C3.30072 1.84356 3.72464 1.66797 4.16667 1.66797H5.83333C6.13667 1.66797 6.42167 1.7488 6.66667 1.8913C6.92003 1.74501 7.20743 1.66798 7.5 1.66797H9.16667C9.7725 1.66797 10.3033 1.9913 10.595 2.47547C10.77 2.33547 10.975 2.2288 11.205 2.16714L12.815 1.7363C13.0264 1.67959 13.247 1.66508 13.464 1.69361C13.681 1.72213 13.8903 1.79313 14.0799 1.90255C14.2695 2.01198 14.4357 2.15768 14.569 2.33133C14.7022 2.50499 14.8 2.70319 14.8567 2.91464L18.3067 15.7938C18.3634 16.0052 18.3779 16.2258 18.3494 16.4428C18.3208 16.6598 18.2498 16.8691 18.1404 17.0587C18.031 17.2483 17.8853 17.4145 17.7116 17.5478C17.538 17.681 17.3398 17.7788 17.1283 17.8355L15.5183 18.2663C15.3069 18.323 15.0864 18.3375 14.8693 18.309C14.6523 18.2805 14.443 18.2095 14.2534 18.1C14.0638 17.9906 13.8976 17.8449 13.7644 17.6713C13.6311 17.4976 13.5333 17.2994 13.4767 17.088L10.8333 7.22047V16.668C10.8333 17.11 10.6577 17.5339 10.3452 17.8465C10.0326 18.159 9.60869 18.3346 9.16667 18.3346H7.5C7.20743 18.3346 6.92003 18.2576 6.66667 18.1113C6.41331 18.2576 6.1259 18.3346 5.83333 18.3346H4.16667C3.72464 18.3346 3.30072 18.159 2.98816 17.8465C2.67559 17.5339 2.5 17.11 2.5 16.668V3.33464ZM4.16667 3.33464H5.83333V16.668H4.16667V3.33464ZM9.16667 16.668H7.5V3.33464H9.16667V16.668ZM11.6367 3.77714L13.2458 3.3463L16.6975 16.2255L15.0875 16.6563L11.6367 3.77714Z" fill="#34A866"/>
</g>
</g>
</svg>
