<svg width="21" height="22" viewBox="0 0 21 22" fill="none" xmlns="http://www.w3.org/2000/svg">
<g id="pepicons-pencil:bulletin-notice">
<g id="Group">
<path id="Vector" fill-rule="evenodd" clip-rule="evenodd" d="M18.9008 7.76875H2.10078V19.3187H18.9008V7.76875ZM2.10078 6.71875C1.8223 6.71875 1.55523 6.82937 1.35832 7.02629C1.16141 7.2232 1.05078 7.49027 1.05078 7.76875V19.3187C1.05078 19.5972 1.16141 19.8643 1.35832 20.0612C1.55523 20.2581 1.8223 20.3687 2.10078 20.3687H18.9008C19.1793 20.3687 19.4463 20.2581 19.6432 20.0612C19.8402 19.8643 19.9508 19.5972 19.9508 19.3187V7.76875C19.9508 7.49027 19.8402 7.2232 19.6432 7.02629C19.4463 6.82937 19.1793 6.71875 18.9008 6.71875H2.10078Z" fill="#2A295C"/>
<path id="Vector_2" fill-rule="evenodd" clip-rule="evenodd" d="M6.30144 10.3938C6.30144 10.2546 6.35676 10.121 6.45521 10.0226C6.55367 9.92412 6.68721 9.86881 6.82644 9.86881H14.1764C14.3157 9.86881 14.4492 9.92412 14.5477 10.0226C14.6461 10.121 14.7014 10.2546 14.7014 10.3938C14.7014 10.533 14.6461 10.6666 14.5477 10.765C14.4492 10.8635 14.3157 10.9188 14.1764 10.9188H6.82644C6.68721 10.9188 6.55367 10.8635 6.45521 10.765C6.35676 10.6666 6.30144 10.533 6.30144 10.3938ZM5.25144 13.5438C5.25144 13.4046 5.30676 13.271 5.40521 13.1726C5.50367 13.0741 5.63721 13.0188 5.77644 13.0188H15.2264C15.3657 13.0188 15.4992 13.0741 15.5977 13.1726C15.6961 13.271 15.7514 13.4046 15.7514 13.5438C15.7514 13.683 15.6961 13.8166 15.5977 13.915C15.4992 14.0135 15.3657 14.0688 15.2264 14.0688H5.77644C5.63721 14.0688 5.50367 14.0135 5.40521 13.915C5.30676 13.8166 5.25144 13.683 5.25144 13.5438ZM6.30144 16.6938C6.30144 16.5546 6.35676 16.421 6.45521 16.3226C6.55367 16.2241 6.68721 16.1688 6.82644 16.1688H14.1764C14.3157 16.1688 14.4492 16.2241 14.5477 16.3226C14.6461 16.421 14.7014 16.5546 14.7014 16.6938C14.7014 16.833 14.6461 16.9666 14.5477 17.065C14.4492 17.1635 14.3157 17.2188 14.1764 17.2188H6.82644C6.68721 17.2188 6.55367 17.1635 6.45521 17.065C6.35676 16.9666 6.30144 16.833 6.30144 16.6938ZM12.3578 3.01756C12.1141 2.77373 11.8247 2.58031 11.5061 2.44835C11.1876 2.31639 10.8462 2.24847 10.5014 2.24847C10.1567 2.24847 9.81527 2.31639 9.49674 2.44835C9.17822 2.58031 8.88881 2.77373 8.64504 3.01756L4.57314 7.09051C4.47456 7.18909 4.34086 7.24447 4.20144 7.24447C4.06203 7.24447 3.92833 7.18909 3.82974 7.09051C3.73116 6.99193 3.67578 6.85822 3.67578 6.71881C3.67578 6.64978 3.68938 6.58142 3.7158 6.51765C3.74221 6.45387 3.78093 6.39592 3.82974 6.34711L7.90374 2.27521C8.59291 1.58625 9.52749 1.19922 10.502 1.19922C11.4764 1.19922 12.411 1.58625 13.1002 2.27521L17.1731 6.34816C17.2219 6.39697 17.2605 6.45491 17.2869 6.51866C17.3132 6.58241 17.3268 6.65072 17.3267 6.7197C17.3267 6.78869 17.3131 6.85698 17.2866 6.9207C17.2602 6.98441 17.2214 7.04229 17.1726 7.09103C17.1238 7.13978 17.0659 7.17843 17.0021 7.20478C16.9384 7.23114 16.8701 7.24467 16.8011 7.24463C16.7321 7.24458 16.6638 7.23094 16.6001 7.2045C16.5364 7.17805 16.4785 7.13932 16.4297 7.09051L12.3578 3.01756Z" fill="#2A295C"/>
</g>
</g>
</svg>
