<svg width="20" height="20" viewBox="0 0 20 20" fill="none" xmlns="http://www.w3.org/2000/svg">
<g id="ph:bowl-food">
<path id="Vector" d="M18.4231 7.93183H17.6887C17.5123 6.01459 16.626 4.23242 15.2036 2.93485C13.7812 1.63729 11.9253 0.917969 10 0.917969C8.07467 0.917969 6.2188 1.63729 4.79639 2.93485C3.37399 4.23242 2.48768 6.01459 2.31131 7.93183H1.57692C1.39076 7.93183 1.21222 8.00578 1.08059 8.13742C0.948952 8.26905 0.875 8.44759 0.875 8.63375C0.878084 10.303 1.33747 11.9397 2.20349 13.3668C3.0695 14.7938 4.30918 15.957 5.78846 16.7304V17.0568C5.78846 17.4292 5.93637 17.7862 6.19964 18.0495C6.46291 18.3128 6.81998 18.4607 7.19231 18.4607H12.8077C13.18 18.4607 13.5371 18.3128 13.8004 18.0495C14.0636 17.7862 14.2115 17.4292 14.2115 17.0568V16.7304C15.6908 15.957 16.9305 14.7938 17.7965 13.3668C18.6625 11.9397 19.1219 10.303 19.125 8.63375C19.125 8.44759 19.051 8.26905 18.9194 8.13742C18.7878 8.00578 18.6092 7.93183 18.4231 7.93183ZM16.2769 7.93183H11.7653C12.6163 6.65511 13.9038 5.73263 15.3864 5.33735C15.8711 6.12583 16.1753 7.01186 16.2769 7.93183ZM13.9904 3.74047C14.1513 3.87208 14.3054 4.011 14.4528 4.15724C12.5843 4.81455 11.0402 6.16544 10.1404 7.93007H7.55204C7.99075 6.70033 8.79843 5.63602 9.86473 4.88254C10.931 4.12906 12.204 3.72316 13.5096 3.72029C13.6702 3.72029 13.8307 3.72819 13.9904 3.74047ZM10 2.31644C10.5633 2.31695 11.1239 2.39279 11.6671 2.54194C10.3443 2.87006 9.13144 3.54107 8.15067 4.48734C7.16991 5.4336 6.45591 6.62168 6.08064 7.93183H3.72305C3.89717 6.38835 4.6332 4.96293 5.79084 3.92731C6.94847 2.89168 8.44674 2.31829 10 2.31644ZM13.2166 15.653C13.0941 15.7092 12.9905 15.7995 12.918 15.9131C12.8455 16.0267 12.8072 16.1587 12.8077 16.2935V17.0568H7.19231V16.2935C7.19282 16.1587 7.15454 16.0267 7.08204 15.9131C7.00954 15.7995 6.90588 15.7092 6.78344 15.653C5.54903 15.085 4.48576 14.2022 3.70033 13.0934C2.91491 11.9845 2.43497 10.6886 2.30868 9.33568H17.6887C17.5627 10.6883 17.0831 11.9841 16.2982 13.0929C15.5132 14.2017 14.4505 15.0846 13.2166 15.653Z" fill="#199CDA"/>
</g>
</svg>
