<svg width="24" height="24" viewBox="0 0 24 24" fill="none" xmlns="http://www.w3.org/2000/svg">
<g id="prime:file-pdf">
<path id="Vector" d="M18.53 9L13 3.47C12.8595 3.32931 12.6688 3.25018 12.47 3.25H8C7.27065 3.25 6.57118 3.53973 6.05546 4.05546C5.53973 4.57118 5.25 5.27065 5.25 6V18C5.25 18.7293 5.53973 19.4288 6.05546 19.9445C6.57118 20.4603 7.27065 20.75 8 20.75H16C16.7293 20.75 17.4288 20.4603 17.9445 19.9445C18.4603 19.4288 18.75 18.7293 18.75 18V9.5C18.7421 9.3116 18.6636 9.13309 18.53 9ZM13.25 5.81L16.19 8.75H13.25V5.81ZM16 19.25H8C7.66848 19.25 7.35054 19.1183 7.11612 18.8839C6.8817 18.6495 6.75 18.3315 6.75 18V6C6.75 5.66848 6.8817 5.35054 7.11612 5.11612C7.35054 4.8817 7.66848 4.75 8 4.75H11.75V9.5C11.7526 9.69811 11.8324 9.88737 11.9725 10.0275C12.1126 10.1676 12.3019 10.2474 12.5 10.25H17.25V18C17.25 18.3315 17.1183 18.6495 16.8839 18.8839C16.6495 19.1183 16.3315 19.25 16 19.25Z" fill="#EF661A"/>
<path id="Vector_2" d="M13.4895 14.8492C12.8746 14.4633 12.4119 13.8769 12.1795 13.1892C12.3948 12.5458 12.4598 11.8616 12.3695 11.1892C12.3407 11.0198 12.2581 10.8642 12.1339 10.7454C12.0097 10.6266 11.8506 10.5509 11.6801 10.5296C11.5096 10.5083 11.3367 10.5425 11.1871 10.627C11.0376 10.7116 10.9192 10.8421 10.8495 10.9992C10.7357 11.8076 10.8215 12.6316 11.0995 13.3992C10.7197 14.2865 10.2959 15.1542 9.82952 15.9992C9.11952 16.3992 8.14952 16.9992 7.99952 17.6892C7.87952 18.2492 8.92952 19.6892 10.7195 16.5692C11.5159 16.2749 12.331 16.0344 13.1595 15.8492C13.7719 16.2001 14.4555 16.4086 15.1595 16.4592C15.3211 16.4634 15.4804 16.4197 15.6173 16.3336C15.7541 16.2476 15.8625 16.123 15.9288 15.9755C15.995 15.828 16.0162 15.6643 15.9896 15.5048C15.9631 15.3453 15.89 15.1972 15.7795 15.0792C15.3595 14.6492 14.1095 14.7692 13.4895 14.8492ZM8.70952 17.8492C8.98935 17.3693 9.35951 16.9482 9.79952 16.6092C9.11952 17.6892 8.70952 17.8792 8.70952 17.8592V17.8492ZM11.6295 11.0392C11.8895 11.0392 11.8695 12.1892 11.6895 12.4992C11.5551 12.0274 11.5345 11.5305 11.6295 11.0492V11.0392ZM10.7595 15.9192C11.0976 15.3007 11.3917 14.6591 11.6395 13.9992C11.905 14.4918 12.2733 14.9215 12.7195 15.2592C12.0486 15.4275 11.393 15.6516 10.7595 15.9292V15.9192ZM15.4595 15.7392C15.4595 15.7392 15.2795 15.9592 14.1295 15.4592C15.3795 15.3792 15.5895 15.6692 15.4595 15.7492V15.7392Z" fill="#EF661A"/>
</g>
</svg>
