<svg width="24" height="24" viewBox="0 0 24 24" fill="none" xmlns="http://www.w3.org/2000/svg">
<g id="prime:file-word">
<path id="Vector" d="M18.53 8.97L13.03 3.47C12.8895 3.32931 12.6988 3.25018 12.5 3.25H8C6.48 3.25 5.25 4.48 5.25 6V18C5.25 19.52 6.48 20.75 8 20.75H16C17.52 20.75 18.75 19.52 18.75 18V9.5C18.75 9.3 18.67 9.11 18.53 8.97ZM13.25 5.81L16.19 8.75H13.25V5.81ZM16 19.25H8C7.31 19.25 6.75 18.69 6.75 18V6C6.75 5.31 7.31 4.75 8 4.75H11.75V9.5C11.75 9.91 12.09 10.25 12.5 10.25H17.25V18C17.25 18.69 16.69 19.25 16 19.25ZM16.22 12.72L14.72 17.72C14.63 18.02 14.35 18.24 14.03 18.25H14C13.69 18.25 13.42 18.06 13.3 17.78L12 14.52L10.7 17.78C10.58 18.08 10.29 18.27 9.97 18.25C9.81457 18.2429 9.66505 18.1883 9.54165 18.0935C9.41826 17.9987 9.32693 17.8684 9.28 17.72L7.78 12.72C7.73629 12.5345 7.765 12.3394 7.86027 12.1744C7.95554 12.0094 8.11019 11.887 8.29265 11.8321C8.47512 11.7772 8.67165 11.7941 8.84212 11.8791C9.0126 11.9642 9.14418 12.1112 9.21 12.29L10.09 15.23L11.29 12.22C11.52 11.65 12.46 11.65 12.68 12.22L13.88 15.23L14.76 12.29C14.88 11.89 15.3 11.67 15.69 11.79C16.09 11.91 16.31 12.33 16.19 12.72H16.22Z" fill="#199CDA"/>
</g>
</svg>
