<svg width="20" height="20" viewBox="0 0 20 20" fill="none" xmlns="http://www.w3.org/2000/svg">
<g id="quill:paper">
<g id="Group">
<path id="Vector" d="M6.25 5.625H8.75M6.25 10H13.75M6.25 12.5H13.75M6.25 15H8.75M5 18.125H15C15.3315 18.125 15.6495 17.9933 15.8839 17.7589C16.1183 17.5245 16.25 17.2065 16.25 16.875V3.125C16.25 2.79348 16.1183 2.47554 15.8839 2.24112C15.6495 2.0067 15.3315 1.875 15 1.875H5C4.66848 1.875 4.35054 2.0067 4.11612 2.24112C3.8817 2.47554 3.75 2.79348 3.75 3.125V16.875C3.75 17.2065 3.8817 17.5245 4.11612 17.7589C4.35054 17.9933 4.66848 18.125 5 18.125Z" stroke="#EF661A" stroke-linecap="round" stroke-linejoin="round"/>
<path id="Vector_2" d="M13.75 5.9375C13.9226 5.9375 14.0625 5.79759 14.0625 5.625C14.0625 5.45241 13.9226 5.3125 13.75 5.3125C13.5774 5.3125 13.4375 5.45241 13.4375 5.625C13.4375 5.79759 13.5774 5.9375 13.75 5.9375Z" fill="#EF661A" stroke="#EF661A" stroke-width="0.5"/>
</g>
</g>
</svg>
