<svg width="19" height="19" viewBox="0 0 19 19" fill="none" xmlns="http://www.w3.org/2000/svg">
<g id="radix-icons:dashboard">
<path id="Vector" fill-rule="evenodd" clip-rule="evenodd" d="M3.85922 1.69922H3.79922C3.52442 1.69922 3.28802 1.69922 3.07922 1.74842C2.75598 1.82566 2.46044 1.99087 2.22534 2.22577C1.99023 2.46066 1.82475 2.75605 1.74722 3.07922C1.69922 3.28802 1.69922 3.52322 1.69922 3.79922V6.79922C1.69922 7.07402 1.69922 7.31042 1.74842 7.51922C1.82566 7.84245 1.99087 8.138 2.22577 8.3731C2.46066 8.6082 2.75605 8.77369 3.07922 8.85122C3.28802 8.89922 3.52322 8.89922 3.79922 8.89922H6.79922C7.07402 8.89922 7.31042 8.89922 7.51922 8.85002C7.84246 8.77278 8.138 8.60756 8.3731 8.37267C8.60821 8.13778 8.77369 7.84239 8.85122 7.51922C8.89922 7.31042 8.89922 7.07522 8.89922 6.79922V3.79922C8.89922 3.52442 8.89922 3.28802 8.85002 3.07922C8.77278 2.75598 8.60756 2.46044 8.37267 2.22534C8.13778 1.99023 7.84239 1.82475 7.51922 1.74722C7.31042 1.69922 7.07522 1.69922 6.79922 1.69922H3.85922ZM3.35882 2.91602C3.41042 2.90402 3.49082 2.89922 3.85922 2.89922H6.73922C7.10882 2.89922 7.18802 2.90282 7.23962 2.91602C7.34741 2.9418 7.44596 2.99693 7.52434 3.0753C7.60271 3.15367 7.65784 3.25222 7.68362 3.36002C7.69562 3.41042 7.69922 3.48962 7.69922 3.85922V6.73922C7.69922 7.10882 7.69562 7.18802 7.68242 7.23962C7.65664 7.34741 7.60151 7.44596 7.52314 7.52434C7.44476 7.60271 7.34622 7.65784 7.23842 7.68362C7.18922 7.69442 7.11002 7.69922 6.73922 7.69922H3.85922C3.48962 7.69922 3.41042 7.69562 3.35882 7.68242C3.25102 7.65664 3.15247 7.60151 3.0741 7.52314C2.99573 7.44476 2.9406 7.34621 2.91482 7.23842C2.90402 7.18922 2.89922 7.11002 2.89922 6.73922V3.85922C2.89922 3.48962 2.90282 3.41042 2.91602 3.35882C2.9418 3.25102 2.99693 3.15247 3.0753 3.0741C3.15367 2.99573 3.25222 2.9406 3.36002 2.91482M12.2592 1.69922H12.1992C11.9244 1.69922 11.688 1.69922 11.4792 1.74842C11.156 1.82566 10.8604 1.99087 10.6253 2.22577C10.3902 2.46066 10.2247 2.75605 10.1472 3.07922C10.0992 3.28802 10.0992 3.52322 10.0992 3.79922V6.79922C10.0992 7.07402 10.0992 7.31042 10.1484 7.51922C10.2257 7.84245 10.3909 8.138 10.6258 8.3731C10.8607 8.6082 11.1561 8.77369 11.4792 8.85122C11.688 8.89922 11.9232 8.89922 12.1992 8.89922H15.1992C15.474 8.89922 15.7104 8.89922 15.9192 8.85002C16.2425 8.77278 16.538 8.60756 16.7731 8.37267C17.0082 8.13778 17.1737 7.84239 17.2512 7.51922C17.2992 7.31042 17.2992 7.07522 17.2992 6.79922V3.79922C17.2992 3.52442 17.2992 3.28802 17.25 3.07922C17.1728 2.75598 17.0076 2.46044 16.7727 2.22534C16.5378 1.99023 16.2424 1.82475 15.9192 1.74722C15.7104 1.69922 15.4752 1.69922 15.1992 1.69922H12.2592ZM11.7588 2.91602C11.8104 2.90402 11.8908 2.89922 12.2592 2.89922H15.1392C15.5088 2.89922 15.588 2.90282 15.6396 2.91602C15.7474 2.9418 15.846 2.99693 15.9243 3.0753C16.0027 3.15367 16.0578 3.25222 16.0836 3.36002C16.0956 3.41042 16.0992 3.48962 16.0992 3.85922V6.73922C16.0992 7.10882 16.0944 7.18802 16.0824 7.23962C16.0566 7.34741 16.0015 7.44596 15.9231 7.52434C15.8448 7.60271 15.7462 7.65784 15.6384 7.68362C15.588 7.69562 15.5088 7.69922 15.1392 7.69922H12.2592C11.8896 7.69922 11.8104 7.69562 11.7588 7.68242C11.651 7.65664 11.5525 7.60151 11.4741 7.52314C11.3957 7.44476 11.3406 7.34621 11.3148 7.23842C11.304 7.18922 11.2992 7.11002 11.2992 6.73922V3.85922C11.2992 3.48962 11.3028 3.41042 11.316 3.35882C11.3418 3.25102 11.3969 3.15247 11.4753 3.0741C11.5537 2.99573 11.6522 2.9406 11.76 2.91482M3.79922 10.0992H6.79922C7.07402 10.0992 7.31042 10.0992 7.51922 10.1484C7.84246 10.2257 8.138 10.3909 8.3731 10.6258C8.60821 10.8607 8.77369 11.1561 8.85122 11.4792C8.89922 11.688 8.89922 11.9232 8.89922 12.1992V15.1992C8.89922 15.474 8.89922 15.7104 8.85002 15.9192C8.77278 16.2425 8.60756 16.538 8.37267 16.7731C8.13778 17.0082 7.84239 17.1737 7.51922 17.2512C7.31042 17.2992 7.07522 17.2992 6.79922 17.2992H3.79922C3.52442 17.2992 3.28802 17.2992 3.07922 17.25C2.75598 17.1728 2.46044 17.0076 2.22534 16.7727C1.99023 16.5378 1.82475 16.2424 1.74722 15.9192C1.69922 15.7104 1.69922 15.4752 1.69922 15.1992V12.1992C1.69922 11.9244 1.69922 11.688 1.74842 11.4792C1.82566 11.156 1.99087 10.8604 2.22577 10.6253C2.46066 10.3902 2.75605 10.2247 3.07922 10.1472C3.28802 10.0992 3.52322 10.0992 3.79922 10.0992ZM3.85922 11.2992C3.48962 11.2992 3.41042 11.3028 3.35882 11.316C3.25102 11.3418 3.15247 11.3969 3.0741 11.4753C2.99573 11.5537 2.9406 11.6522 2.91482 11.76C2.90402 11.8092 2.89922 11.8884 2.89922 12.2592V15.1392C2.89922 15.5088 2.90282 15.588 2.91602 15.6396C2.9418 15.7474 2.99693 15.846 3.0753 15.9243C3.15367 16.0027 3.25222 16.0578 3.36002 16.0836C3.41042 16.0956 3.48962 16.0992 3.85922 16.0992H6.73922C7.10882 16.0992 7.18802 16.0944 7.23962 16.0824C7.34741 16.0566 7.44596 16.0015 7.52434 15.9231C7.60271 15.8448 7.65784 15.7462 7.68362 15.6384C7.69562 15.588 7.69922 15.5088 7.69922 15.1392V12.2592C7.69922 11.8896 7.69562 11.8104 7.68242 11.7588C7.65664 11.651 7.60151 11.5525 7.52314 11.4741C7.44476 11.3957 7.34622 11.3406 7.23842 11.3148C7.18922 11.304 7.11002 11.2992 6.73922 11.2992H3.85922ZM12.2592 10.0992H12.1992C11.9244 10.0992 11.688 10.0992 11.4792 10.1484C11.156 10.2257 10.8604 10.3909 10.6253 10.6258C10.3902 10.8607 10.2247 11.1561 10.1472 11.4792C10.0992 11.688 10.0992 11.9232 10.0992 12.1992V15.1992C10.0992 15.474 10.0992 15.7104 10.1484 15.9192C10.2257 16.2425 10.3909 16.538 10.6258 16.7731C10.8607 17.0082 11.1561 17.1737 11.4792 17.2512C11.688 17.3004 11.9244 17.3004 12.1992 17.3004H15.1992C15.474 17.3004 15.7104 17.3004 15.9192 17.2512C16.2422 17.1738 16.5375 17.0085 16.7724 16.7736C17.0073 16.5387 17.1726 16.2434 17.25 15.9204C17.2992 15.7116 17.2992 15.4752 17.2992 15.2004V12.2004C17.2992 11.9256 17.2992 11.6892 17.25 11.4804C17.173 11.157 17.0078 10.8612 16.7729 10.6258C16.538 10.3905 16.2425 10.2248 15.9192 10.1472C15.7104 10.0992 15.4752 10.0992 15.1992 10.0992H12.2592ZM11.7588 11.316C11.8104 11.304 11.8908 11.2992 12.2592 11.2992H15.1392C15.5088 11.2992 15.588 11.3028 15.6396 11.316C15.7474 11.3418 15.846 11.3969 15.9243 11.4753C16.0027 11.5537 16.0578 11.6522 16.0836 11.76C16.0956 11.8104 16.0992 11.8896 16.0992 12.2592V15.1392C16.0992 15.5088 16.0944 15.588 16.0824 15.6396C16.0566 15.7474 16.0015 15.846 15.9231 15.9243C15.8448 16.0027 15.7462 16.0578 15.6384 16.0836C15.588 16.0956 15.5088 16.0992 15.1392 16.0992H12.2592C11.8896 16.0992 11.8104 16.0944 11.7588 16.0824C11.651 16.0566 11.5525 16.0015 11.4741 15.9231C11.3957 15.8448 11.3406 15.7462 11.3148 15.6384C11.304 15.5892 11.2992 15.51 11.2992 15.1392V12.2592C11.2992 11.8896 11.3028 11.8104 11.316 11.7588C11.3418 11.651 11.3969 11.5525 11.4753 11.4741C11.5537 11.3957 11.6522 11.3406 11.76 11.3148" fill="#283897"/>
</g>
</svg>
