<svg width="24" height="24" viewBox="0 0 24 24" fill="none" xmlns="http://www.w3.org/2000/svg">
<g id="reminder-icon 1" clip-path="url(#clip0_4028_3454)">
<path id="Vector" d="M10.9019 13.3555C10.7576 13.3555 10.6191 13.2981 10.517 13.1959C10.4149 13.0937 10.3576 12.9551 10.3576 12.8106C10.3576 12.666 10.4149 12.5274 10.517 12.4252C10.6191 12.323 10.7576 12.2656 10.9019 12.2656H12.8081C12.6904 12.4953 12.5855 12.7313 12.494 12.9727C12.4452 13.0977 12.4023 13.2246 12.3613 13.3633L10.9019 13.3555ZM20.4935 22.4336C20.4542 22.6466 20.379 22.8514 20.271 23.0391C20.1038 23.3323 19.8617 23.5757 19.5697 23.7446C19.2776 23.9134 18.946 24.0015 18.6087 24C18.3827 24.001 18.1582 23.9627 17.9453 23.8867C17.7313 23.8108 17.5329 23.6963 17.36 23.5488C17.1884 23.4072 17.0419 23.2375 16.9269 23.0469C16.8159 22.8534 16.7399 22.6418 16.7025 22.4219C16.6934 22.3683 16.7057 22.3133 16.7367 22.2687C16.7677 22.2242 16.815 22.1936 16.8683 22.1836H20.2964C20.3481 22.1836 20.3978 22.2042 20.4344 22.2408C20.471 22.2774 20.4915 22.3271 20.4915 22.3789C20.4935 22.3971 20.4935 22.4154 20.4915 22.4336H20.4935ZM19.6799 11.3008C19.8443 11.3432 20.0059 11.396 20.1637 11.459C20.3938 11.5506 20.6163 11.6603 20.829 11.7871L20.8544 11.8027C21.0534 11.9259 21.2426 12.0644 21.4202 12.2168C21.6027 12.3729 21.7717 12.5441 21.9256 12.7285C22.0803 12.9155 22.2187 13.1154 22.3392 13.3262C22.4615 13.5381 22.5665 13.7595 22.6533 13.9883C22.7403 14.224 22.8056 14.4672 22.8484 14.7148C22.8934 14.9669 22.9156 15.2225 22.9148 15.4785V16.3086C22.9148 16.5723 22.9148 16.832 22.9148 17.0898C22.9154 17.3197 22.9298 17.5492 22.9577 17.7773C22.9857 17.999 23.0268 18.2188 23.0806 18.4356C23.1331 18.643 23.2049 18.8451 23.2952 19.0391C23.3898 19.2442 23.5027 19.4403 23.6328 19.625C23.7762 19.8259 23.9411 20.0106 24.1244 20.1758C24.345 20.3777 24.5812 20.5618 24.8307 20.7266C24.8912 20.767 24.937 20.826 24.9611 20.8948C24.9852 20.9635 24.9863 21.0382 24.9643 21.1076C24.9423 21.1771 24.8983 21.2374 24.839 21.2797C24.7797 21.3219 24.7083 21.3437 24.6356 21.3418H12.533C12.4888 21.3421 12.445 21.3336 12.404 21.3168C12.3631 21.3 12.3258 21.2753 12.2945 21.2441C12.2631 21.2129 12.2382 21.1758 12.2212 21.1349C12.2042 21.094 12.1955 21.0501 12.1955 21.0059C12.194 20.9448 12.209 20.8844 12.2388 20.8312C12.2687 20.7779 12.3124 20.7337 12.3652 20.7031C12.6134 20.5389 12.8482 20.3554 13.0676 20.1543C13.2502 19.9888 13.4138 19.8034 13.5554 19.6016L13.5691 19.584C13.6918 19.404 13.8001 19.2146 13.8929 19.0176C13.9839 18.8235 14.057 18.6214 14.1115 18.4141C14.1115 18.4141 14.1115 18.4141 14.1115 18.4023C14.1635 18.1954 14.2019 17.9854 14.2266 17.7734C14.2542 17.5427 14.2679 17.3105 14.2675 17.0781V15.4805C14.2679 15.2238 14.2908 14.9676 14.3358 14.7148C14.3781 14.4665 14.4434 14.2226 14.5309 13.9863C14.6187 13.7554 14.725 13.532 14.849 13.3184C14.9715 13.1063 15.1118 12.9051 15.2685 12.7168C15.425 12.5298 15.5966 12.3561 15.7816 12.1973C16.158 11.8745 16.5869 11.6188 17.0498 11.4414C17.2117 11.3804 17.3772 11.3295 17.5454 11.2891C17.594 11.099 17.6979 10.9277 17.8439 10.7969C18.0603 10.6154 18.3389 10.5257 18.6204 10.5469C18.8994 10.532 19.1738 10.6227 19.3891 10.8008C19.5331 10.9334 19.6366 11.104 19.6877 11.293L19.6799 11.3008ZM19.8594 12.3359C19.6832 12.2665 19.5018 12.211 19.317 12.1699C19.2462 12.1612 19.1804 12.1289 19.1301 12.0783C19.0799 12.0276 19.0481 11.9615 19.0399 11.8906C19.0354 11.7812 18.9926 11.6768 18.9189 11.5957C18.8297 11.5291 18.7199 11.4959 18.6087 11.502C18.5019 11.4913 18.3949 11.5205 18.3082 11.584C18.2338 11.6652 18.1915 11.7707 18.1892 11.8809C18.1819 11.9492 18.1527 12.0134 18.1059 12.0637C18.0591 12.1141 17.9973 12.1479 17.9297 12.1602C17.7301 12.1963 17.5342 12.2506 17.3444 12.3223C17.1583 12.393 16.9788 12.4799 16.8079 12.582C16.6375 12.6838 16.4763 12.8001 16.3259 12.9297C16.1764 13.0583 16.0374 13.1987 15.9104 13.3496C15.7851 13.5032 15.6722 13.6664 15.5728 13.8379C15.4734 14.0121 15.3873 14.1936 15.3153 14.3809C15.2434 14.5708 15.1892 14.7669 15.1533 14.9668C15.1176 15.1706 15.0999 15.3771 15.1007 15.584V17.1055C15.1006 17.3535 15.0857 17.6014 15.0558 17.8477C15.0267 18.08 14.9831 18.3103 14.9251 18.5371C14.9251 18.5371 14.9251 18.5469 14.9251 18.5527C14.863 18.7878 14.7794 19.0167 14.6753 19.2363C14.572 19.4543 14.452 19.6639 14.3163 19.8633L14.3046 19.8828C14.1423 20.11 13.9566 20.3195 13.7505 20.5078H23.463C23.2556 20.3195 23.0692 20.1093 22.9069 19.8809C22.7621 19.6748 22.6355 19.4565 22.5284 19.2285C22.4219 19.0124 22.3357 18.7868 22.2709 18.5547C22.2131 18.3212 22.1695 18.0845 22.1402 17.8457C22.1118 17.6032 22.0968 17.3594 22.0953 17.1152C22.0953 16.875 22.0953 16.627 22.0953 16.3691C22.0953 15.8887 22.0953 15.6289 22.0953 15.5879C22.096 15.3803 22.0777 15.173 22.0407 14.9688C22.0065 14.7689 21.9536 14.5727 21.8826 14.3828C21.8128 14.1959 21.7279 14.015 21.629 13.8418C21.5309 13.6712 21.4186 13.5092 21.2934 13.3574C21.1682 13.2067 21.0305 13.0669 20.8817 12.9395C20.7377 12.8165 20.5844 12.7048 20.4232 12.6055L20.4018 12.5918C20.2295 12.4911 20.0502 12.403 19.8652 12.3281L19.8594 12.3359ZM6.2681 12.8145C6.21442 12.7259 6.19694 12.62 6.21929 12.5189C6.24165 12.4177 6.30212 12.3291 6.38811 12.2714C6.4741 12.2138 6.57898 12.1916 6.68092 12.2094C6.78286 12.2273 6.87401 12.2838 6.93537 12.3672L7.15389 12.6953L8.02212 11.6387C8.05443 11.5946 8.09538 11.5576 8.14246 11.5299C8.18954 11.5021 8.24177 11.4843 8.29596 11.4775C8.35015 11.4707 8.40516 11.475 8.45764 11.4901C8.51011 11.5053 8.55895 11.531 8.60116 11.5657C8.64338 11.6004 8.67809 11.6433 8.70318 11.6919C8.72827 11.7404 8.74321 11.7936 8.74708 11.8482C8.75096 11.9027 8.74369 11.9574 8.72572 12.0091C8.70775 12.0607 8.67946 12.1081 8.64257 12.1484L7.4407 13.6113C7.41419 13.646 7.38183 13.6757 7.3451 13.6992C7.25647 13.7583 7.14811 13.78 7.04361 13.7595C6.9391 13.739 6.84691 13.678 6.78709 13.5898L6.2681 12.8086V12.8145ZM6.2681 8.98633C6.23591 8.94257 6.2129 8.89273 6.20048 8.83982C6.18806 8.78691 6.18647 8.73203 6.19582 8.67849C6.20517 8.62495 6.22525 8.57387 6.25487 8.52831C6.28448 8.48276 6.323 8.44368 6.36812 8.41344C6.41323 8.3832 6.464 8.36243 6.51735 8.35237C6.57071 8.34231 6.62555 8.34317 6.67856 8.35491C6.73157 8.36666 6.78166 8.38903 6.8258 8.42068C6.86993 8.45233 6.90721 8.4926 6.93537 8.53907L7.15389 8.86524L8.02212 7.81251C8.09157 7.7366 8.18744 7.69022 8.29001 7.68292C8.39257 7.67562 8.49403 7.70794 8.57351 7.77325C8.65299 7.83855 8.70445 7.93186 8.7173 8.03399C8.73014 8.13611 8.7034 8.23928 8.64257 8.32227L7.4407 9.78516C7.41412 9.82029 7.3818 9.85067 7.3451 9.87501C7.30129 9.90452 7.2521 9.9251 7.20034 9.93558C7.14859 9.94606 7.09527 9.94622 7.04345 9.93606C6.99163 9.92591 6.94232 9.90563 6.89833 9.87638C6.85434 9.84714 6.81654 9.8095 6.78709 9.76563L6.2681 8.98438V8.98633ZM6.2681 5.15626C6.23591 5.11249 6.2129 5.06265 6.20048 5.00974C6.18806 4.95683 6.18647 4.90195 6.19582 4.84841C6.20517 4.79488 6.22525 4.74379 6.25487 4.69823C6.28448 4.65268 6.323 4.6136 6.36812 4.58336C6.41323 4.55312 6.464 4.53235 6.51735 4.52229C6.57071 4.51223 6.62555 4.5131 6.67856 4.52484C6.73157 4.53658 6.78166 4.55895 6.8258 4.5906C6.86993 4.62225 6.90721 4.66252 6.93537 4.70899L7.15389 5.03321L8.02212 3.97657C8.09043 3.89421 8.18862 3.84238 8.2951 3.83249C8.40157 3.8226 8.50761 3.85546 8.58989 3.92383C8.67217 3.99221 8.72394 4.0905 8.73382 4.19709C8.7437 4.30368 8.71087 4.40983 8.64257 4.49219L7.4407 5.95508C7.41371 5.98984 7.38145 6.02016 7.3451 6.04493C7.25623 6.10383 7.14771 6.12518 7.04318 6.10433C6.93866 6.08348 6.84661 6.02211 6.78709 5.9336L6.2681 5.15235V5.15626ZM10.9019 5.24805C10.8304 5.24805 10.7597 5.23396 10.6936 5.20657C10.6276 5.17919 10.5676 5.13905 10.517 5.08845C10.4665 5.03785 10.4264 4.97778 10.399 4.91166C10.3717 4.84555 10.3576 4.77469 10.3576 4.70313C10.3576 4.63157 10.3717 4.56071 10.399 4.4946C10.4264 4.42849 10.4665 4.36841 10.517 4.31781C10.5676 4.26721 10.6276 4.22707 10.6936 4.19969C10.7597 4.1723 10.8304 4.15821 10.9019 4.15821H16.7025C16.774 4.15821 16.8448 4.1723 16.9108 4.19969C16.9769 4.22707 17.0369 4.26721 17.0874 4.31781C17.138 4.36841 17.1781 4.42849 17.2054 4.4946C17.2328 4.56071 17.2469 4.63157 17.2469 4.70313C17.2469 4.77469 17.2328 4.84555 17.2054 4.91166C17.1781 4.97778 17.138 5.03785 17.0874 5.08845C17.0369 5.13905 16.9769 5.17919 16.9108 5.20657C16.8448 5.23396 16.774 5.24805 16.7025 5.24805H10.9019ZM4.26238 6.07561e-06H19.7794C19.9451 -0.000508632 20.1093 0.0317611 20.2626 0.094962C20.4159 0.158163 20.5551 0.25105 20.6724 0.368288C20.7897 0.485526 20.8827 0.624806 20.9461 0.778129C21.0095 0.931452 21.042 1.0958 21.0417 1.26172V9.20508L20.95 9.16407C20.7128 9.06918 20.4697 8.98959 20.2223 8.92579C20.1684 8.73497 20.0791 8.55605 19.9589 8.39844V1.26758C19.9578 1.22053 19.9398 1.17545 19.9081 1.14063C19.8731 1.10781 19.8273 1.08904 19.7794 1.0879H4.26238C4.21512 1.08841 4.16996 1.10757 4.13672 1.14121C4.10348 1.17485 4.08483 1.22026 4.08484 1.26758V16.8809C4.08483 16.9282 4.10348 16.9736 4.13672 17.0072C4.16996 17.0409 4.21512 17.06 4.26238 17.0606H12.0862V17.6113C12.0862 17.791 12.0862 17.9668 12.0706 18.1387H4.26629C4.1003 18.1401 3.93567 18.1086 3.78195 18.0459C3.62822 17.9832 3.48845 17.8906 3.37074 17.7734C3.25226 17.6568 3.15839 17.5175 3.09471 17.3638C3.03103 17.2102 2.99884 17.0453 3.00003 16.8789V1.26368C2.99952 1.09759 3.03182 0.933031 3.09507 0.779482C3.15833 0.625933 3.25129 0.486422 3.36862 0.368977C3.48594 0.251531 3.62531 0.158469 3.77869 0.0951468C3.93208 0.031824 4.09647 -0.000509743 4.26238 6.07561e-06ZM10.8961 9.30079C10.822 9.30523 10.7478 9.29446 10.678 9.26914C10.6082 9.24381 10.5443 9.20447 10.4903 9.15352C10.4362 9.10257 10.3932 9.0411 10.3638 8.97289C10.3343 8.90467 10.3191 8.83115 10.3191 8.75684C10.3191 8.68253 10.3343 8.60901 10.3638 8.5408C10.3932 8.47258 10.4362 8.41111 10.4903 8.36016C10.5443 8.30922 10.6082 8.26987 10.678 8.24454C10.7478 8.21922 10.822 8.20845 10.8961 8.2129H16.2499C16.3421 8.2125 16.4329 8.23565 16.5137 8.28015C16.5945 8.32466 16.6626 8.38906 16.7116 8.46726C16.7607 8.54546 16.7889 8.63488 16.7938 8.72708C16.7987 8.81927 16.78 8.91119 16.7396 8.99415C16.5835 9.03907 16.4293 9.0918 16.2772 9.14844C16.1542 9.19532 16.0333 9.2461 15.9123 9.30079H10.8961Z" fill="#2A295C"/>
</g>
<defs>
<clipPath id="clip0_4028_3454">
<rect width="24" height="24" fill="white"/>
</clipPath>
</defs>
</svg>
