<svg width="19" height="19" viewBox="0 0 19 19" fill="none" xmlns="http://www.w3.org/2000/svg">
<g id="solar:phone-linear">
<path id="Vector" d="M13.2219 12.4804L13.5639 12.1406L12.7696 11.3426L12.4291 11.6824L13.2219 12.4804ZM14.7106 11.9981L16.1439 12.7774L16.6801 11.7889L15.2476 11.0104L14.7106 11.9981ZM16.4191 14.3254L15.3541 15.3851L16.1469 16.1824L17.2119 15.1234L16.4191 14.3254ZM14.7046 15.7256C13.6171 15.8276 10.8046 15.7369 7.75813 12.7084L6.96463 13.5056C10.2886 16.8109 13.4529 16.9729 14.8096 16.8461L14.7046 15.7256ZM7.75813 12.7084C4.85488 9.82085 4.37338 7.3931 4.31338 6.33935L3.18988 6.4031C3.26488 7.7291 3.86113 10.4201 6.96463 13.5056L7.75813 12.7084ZM8.78938 8.07335L9.00463 7.85885L8.21263 7.0616L7.99738 7.27535L8.78938 8.07335ZM9.17563 5.1326L8.23063 3.8696L7.32988 4.5446L8.27488 5.80685L9.17563 5.1326ZM5.04988 3.59435L3.87238 4.76435L4.66588 5.56235L5.84263 4.39235L5.04988 3.59435ZM8.39338 7.67435C7.99588 7.27535 7.99588 7.27535 7.99588 7.27685H7.99438L7.99213 7.27985C7.95649 7.31579 7.92458 7.35524 7.89688 7.3976C7.85638 7.4576 7.81213 7.53635 7.77463 7.6361C7.68334 7.8936 7.66059 8.17041 7.70863 8.43935C7.80913 9.0881 8.25613 9.94535 9.40063 11.0839L10.1941 10.2859C9.12238 9.22085 8.86738 8.57285 8.82013 8.26685C8.79763 8.12135 8.82088 8.04935 8.82763 8.03285C8.83213 8.02285 8.83213 8.02135 8.82763 8.02835C8.82094 8.0387 8.81342 8.04849 8.80513 8.0576L8.79763 8.0651L8.79013 8.07185L8.39338 7.67435ZM9.40063 11.0839C10.5459 12.2224 11.4076 12.6664 12.0571 12.7654C12.3894 12.8164 12.6571 12.7759 12.8604 12.7001C12.9742 12.6585 13.0806 12.5987 13.1754 12.5231L13.2129 12.4894L13.2181 12.4849L13.2204 12.4826L13.2211 12.4811C13.2211 12.4811 13.2219 12.4804 12.8251 12.0814C12.4276 11.6824 12.4299 11.6816 12.4299 11.6816L12.4314 11.6801L12.4329 11.6786L12.4374 11.6749L12.4449 11.6674L12.4734 11.6449C12.4804 11.6404 12.4786 11.6409 12.4681 11.6464C12.4494 11.6531 12.3759 11.6764 12.2281 11.6539C11.9176 11.6059 11.2651 11.3509 10.1941 10.2859L9.40063 11.0839ZM8.23063 3.86885C7.46563 2.84885 5.96263 2.68685 5.04988 3.59435L5.84263 4.39235C6.24163 3.9956 6.94963 4.03685 7.32988 4.5446L8.23063 3.86885ZM4.31413 6.3401C4.29913 6.0806 4.41838 5.8091 4.66588 5.5631L3.87163 4.7651C3.46888 5.1656 3.15163 5.7326 3.18988 6.4031L4.31413 6.3401ZM15.3541 15.3851C15.1486 15.5906 14.9266 15.7061 14.7054 15.7264L14.8096 16.8461C15.3609 16.7944 15.8116 16.5169 16.1476 16.1831L15.3541 15.3851ZM9.00463 7.85885C9.74338 7.1246 9.79813 5.96435 9.17638 5.13335L8.27563 5.8076C8.57788 6.21185 8.53288 6.7421 8.21188 7.06235L9.00463 7.85885ZM16.1446 12.7781C16.7574 13.1111 16.8526 13.8956 16.4199 14.3261L17.2134 15.1234C18.2184 14.1236 17.9086 12.4564 16.6809 11.7896L16.1446 12.7781ZM13.5639 12.1414C13.8519 11.8549 14.3154 11.7844 14.7114 11.9989L15.2484 11.0111C14.4354 10.5686 13.4274 10.6909 12.7704 11.3434L13.5639 12.1414Z" fill="#2A295C"/>
</g>
</svg>
