<svg width="24" height="24" viewBox="0 0 24 24" fill="none" xmlns="http://www.w3.org/2000/svg">
<g id="solar:card-linear">
<g id="Group">
<path id="Vector" d="M3 12.0008C3 8.60688 3 6.90948 4.0548 5.85558C5.1096 4.80168 6.8061 4.80078 10.2 4.80078H13.8C17.1939 4.80078 18.8913 4.80078 19.9452 5.85558C20.9991 6.91038 21 8.60688 21 12.0008C21 15.3947 21 17.0921 19.9452 18.146C18.8904 19.1999 17.1939 19.2008 13.8 19.2008H10.2C6.8061 19.2008 5.1087 19.2008 4.0548 18.146C3.0009 17.0912 3 15.3947 3 12.0008Z" stroke="#2A295C" stroke-width="1.35"/>
<path id="Vector_2" d="M10.2 15.6031H6.6M13.8 15.6031H12.45M3 10.2031H21" stroke="#2A295C" stroke-width="1.35" stroke-linecap="round"/>
</g>
</g>
</svg>
