<svg width="19" height="19" viewBox="0 0 19 19" fill="none" xmlns="http://www.w3.org/2000/svg">
<g id="stash:data-date">
<path id="Vector" d="M6.72982 11.0846C6.99227 11.0846 7.24398 10.9804 7.42956 10.7948C7.61514 10.6092 7.7194 10.3575 7.7194 10.0951C7.7194 9.8326 7.61514 9.58089 7.42956 9.39531C7.24398 9.20973 6.99227 9.10547 6.72982 9.10547C6.46736 9.10547 6.21566 9.20973 6.03008 9.39531C5.84449 9.58089 5.74023 9.8326 5.74023 10.0951C5.74023 10.3575 5.84449 10.6092 6.03008 10.7948C6.21566 10.9804 6.46736 11.0846 6.72982 11.0846ZM6.72982 13.8555C6.99227 13.8555 7.24398 13.7512 7.42956 13.5656C7.61514 13.38 7.7194 13.1283 7.7194 12.8659C7.7194 12.6034 7.61514 12.3517 7.42956 12.1661C7.24398 11.9806 6.99227 11.8763 6.72982 11.8763C6.46736 11.8763 6.21566 11.9806 6.03008 12.1661C5.84449 12.3517 5.74023 12.6034 5.74023 12.8659C5.74023 13.1283 5.84449 13.38 6.03008 13.5656C6.21566 13.7512 6.46736 13.8555 6.72982 13.8555ZM10.4902 10.0951C10.4902 10.3575 10.386 10.6092 10.2004 10.7948C10.0148 10.9804 9.76311 11.0846 9.50065 11.0846C9.2382 11.0846 8.98649 10.9804 8.80091 10.7948C8.61533 10.6092 8.51107 10.3575 8.51107 10.0951C8.51107 9.8326 8.61533 9.58089 8.80091 9.39531C8.98649 9.20973 9.2382 9.10547 9.50065 9.10547C9.76311 9.10547 10.0148 9.20973 10.2004 9.39531C10.386 9.58089 10.4902 9.8326 10.4902 10.0951ZM9.50065 13.8555C9.76311 13.8555 10.0148 13.7512 10.2004 13.5656C10.386 13.38 10.4902 13.1283 10.4902 12.8659C10.4902 12.6034 10.386 12.3517 10.2004 12.1661C10.0148 11.9806 9.76311 11.8763 9.50065 11.8763C9.2382 11.8763 8.98649 11.9806 8.80091 12.1661C8.61533 12.3517 8.51107 12.6034 8.51107 12.8659C8.51107 13.1283 8.61533 13.38 8.80091 13.5656C8.98649 13.7512 9.2382 13.8555 9.50065 13.8555ZM13.2611 10.0951C13.2611 10.3575 13.1568 10.6092 12.9712 10.7948C12.7856 10.9804 12.5339 11.0846 12.2715 11.0846C12.009 11.0846 11.7573 10.9804 11.5717 10.7948C11.3862 10.6092 11.2819 10.3575 11.2819 10.0951C11.2819 9.8326 11.3862 9.58089 11.5717 9.39531C11.7573 9.20973 12.009 9.10547 12.2715 9.10547C12.5339 9.10547 12.7856 9.20973 12.9712 9.39531C13.1568 9.58089 13.2611 9.8326 13.2611 10.0951Z" fill="#2A295C"/>
<path id="Vector_2" fill-rule="evenodd" clip-rule="evenodd" d="M6.33398 2.57422C6.49146 2.57422 6.64248 2.63677 6.75383 2.74812C6.86518 2.85947 6.92773 3.0105 6.92773 3.16797V3.76172H12.0736V3.16797C12.0736 3.0105 12.1361 2.85947 12.2475 2.74812C12.3588 2.63677 12.5098 2.57422 12.6673 2.57422C12.8248 2.57422 12.9758 2.63677 13.0872 2.74812C13.1985 2.85947 13.2611 3.0105 13.2611 3.16797V3.76805C13.3814 3.77122 13.4936 3.77702 13.5975 3.78547C13.8984 3.80922 14.1802 3.86305 14.447 3.99922C14.8567 4.20796 15.1898 4.54107 15.3986 4.9508C15.5347 5.21759 15.5886 5.49943 15.6123 5.80026C15.6361 6.08922 15.6361 6.44151 15.6361 6.86505V12.9292C15.6361 13.3528 15.6361 13.7051 15.6123 13.994C15.5886 14.2948 15.5347 14.5767 15.3986 14.8435C15.19 15.2531 14.8572 15.5862 14.4478 15.7951C14.1802 15.9312 13.8984 15.9851 13.5975 16.0088C13.3086 16.0326 12.9563 16.0326 12.5335 16.0326H6.46857C6.04503 16.0326 5.69273 16.0326 5.40378 16.0088C5.10294 15.9851 4.82111 15.9312 4.55432 15.7951C4.14483 15.5867 3.81174 15.2542 3.60273 14.8451C3.46657 14.5775 3.41273 14.2956 3.38898 13.9948C3.36523 13.7058 3.36523 13.3536 3.36523 12.9308V6.86505C3.36523 6.44151 3.36523 6.08922 3.38898 5.80026C3.41273 5.49943 3.46657 5.21759 3.60273 4.9508C3.81147 4.54107 4.14459 4.20796 4.55432 3.99922C4.82111 3.86305 5.10294 3.80922 5.40378 3.78547C5.50775 3.77702 5.6199 3.77122 5.74023 3.76805V3.16797C5.74023 3.09 5.75559 3.01279 5.78543 2.94075C5.81527 2.86871 5.85901 2.80326 5.91414 2.74812C5.96927 2.69299 6.03473 2.64925 6.10677 2.61942C6.1788 2.58958 6.25601 2.57422 6.33398 2.57422ZM5.74023 5.14714V4.95555C5.66018 4.95801 5.58019 4.9625 5.50036 4.96901C5.27315 4.98722 5.16469 5.02047 5.09344 5.05689C4.90694 5.15181 4.75533 5.30342 4.6604 5.48993C4.62398 5.56118 4.59073 5.66964 4.57253 5.89684C4.55353 6.13118 4.55273 6.43518 4.55273 6.8888V7.32422H14.4486V6.8888C14.4486 6.43597 14.4486 6.13118 14.4288 5.89684C14.4106 5.66964 14.3773 5.56118 14.3409 5.48993C14.246 5.30342 14.0944 5.15181 13.9079 5.05689C13.8366 5.02047 13.7282 4.98722 13.5002 4.96901C13.4206 4.96252 13.3409 4.95803 13.2611 4.95555V5.14714C13.2611 5.30461 13.1985 5.45563 13.0872 5.56698C12.9758 5.67833 12.8248 5.74089 12.6673 5.74089C12.5098 5.74089 12.3588 5.67833 12.2475 5.56698C12.1361 5.45563 12.0736 5.30461 12.0736 5.14714V4.94922H6.92773V5.14714C6.92773 5.30461 6.86518 5.45563 6.75383 5.56698C6.64248 5.67833 6.49146 5.74089 6.33398 5.74089C6.17651 5.74089 6.02549 5.67833 5.91414 5.56698C5.80279 5.45563 5.74023 5.30461 5.74023 5.14714ZM14.4486 8.11589H4.55273V12.9055C4.55273 13.3583 4.55273 13.6631 4.57253 13.8966C4.59073 14.1246 4.62398 14.2331 4.6604 14.3043C4.7554 14.4912 4.90661 14.6424 5.09344 14.7374C5.16469 14.7738 5.27315 14.8071 5.50036 14.8253C5.73469 14.8443 6.03869 14.8451 6.49232 14.8451H12.509C12.9618 14.8451 13.2666 14.8451 13.5002 14.8253C13.7282 14.8071 13.8366 14.7738 13.9079 14.7374C14.0944 14.6425 14.246 14.4908 14.3409 14.3043C14.3773 14.2331 14.4106 14.1246 14.4288 13.8966C14.4478 13.6631 14.4486 13.3583 14.4486 12.9055V8.11589Z" fill="#2A295C"/>
<path id="Vector_3" fill-rule="evenodd" clip-rule="evenodd" d="M7.71875 6.13672C7.71875 5.97925 7.78131 5.82822 7.89266 5.71687C8.00401 5.60552 8.15503 5.54297 8.3125 5.54297H10.6875C10.845 5.54297 10.996 5.60552 11.1073 5.71687C11.2187 5.82822 11.2812 5.97925 11.2812 6.13672C11.2812 6.29419 11.2187 6.44521 11.1073 6.55656C10.996 6.66791 10.845 6.73047 10.6875 6.73047H8.3125C8.15503 6.73047 8.00401 6.66791 7.89266 6.55656C7.78131 6.44521 7.71875 6.29419 7.71875 6.13672Z" fill="#2A295C"/>
</g>
</svg>
