<svg width="18" height="18" viewBox="0 0 18 18" fill="none" xmlns="http://www.w3.org/2000/svg">
<g id="material-symbols:download-rounded">
<path id="Vector" d="M9 11.6813C8.9 11.6813 8.80625 11.6658 8.71875 11.6348C8.63125 11.6038 8.55 11.5505 8.475 11.475L5.775 8.775C5.625 8.625 5.553 8.45 5.559 8.25C5.565 8.05 5.637 7.875 5.775 7.725C5.925 7.575 6.10325 7.497 6.30975 7.491C6.51625 7.485 6.69425 7.55675 6.84375 7.70625L8.25 9.1125V3.75C8.25 3.5375 8.322 3.3595 8.466 3.216C8.61 3.0725 8.788 3.0005 9 3C9.212 2.9995 9.39025 3.0715 9.53475 3.216C9.67925 3.3605 9.751 3.5385 9.75 3.75V9.1125L11.1562 7.70625C11.3062 7.55625 11.4845 7.48425 11.691 7.49025C11.8975 7.49625 12.0755 7.5745 12.225 7.725C12.3625 7.875 12.4345 8.05 12.441 8.25C12.4475 8.45 12.3755 8.625 12.225 8.775L9.525 11.475C9.45 11.55 9.36875 11.6033 9.28125 11.6348C9.19375 11.6663 9.1 11.6818 9 11.6813ZM4.5 15C4.0875 15 3.7345 14.8533 3.441 14.5598C3.1475 14.2663 3.0005 13.913 3 13.5V12C3 11.7875 3.072 11.6095 3.216 11.466C3.36 11.3225 3.538 11.2505 3.75 11.25C3.962 11.2495 4.14025 11.3215 4.28475 11.466C4.42925 11.6105 4.501 11.7885 4.5 12V13.5H13.5V12C13.5 11.7875 13.572 11.6095 13.716 11.466C13.86 11.3225 14.038 11.2505 14.25 11.25C14.462 11.2495 14.6402 11.3215 14.7847 11.466C14.9292 11.6105 15.001 11.7885 15 12V13.5C15 13.9125 14.8532 14.2658 14.5597 14.5598C14.2662 14.8538 13.913 15.0005 13.5 15H4.5Z" fill="#283897"/>
</g>
</svg>
