<svg width="18" height="19" viewBox="0 0 18 19" fill="none" xmlns="http://www.w3.org/2000/svg">
<g id="magnifier">
<path id="Icon" fill-rule="evenodd" clip-rule="evenodd" d="M10.6487 12.3418C9.7153 13.0305 8.56143 13.4375 7.3125 13.4375C4.2059 13.4375 1.6875 10.9191 1.6875 7.8125C1.6875 4.7059 4.2059 2.1875 7.3125 2.1875C10.4191 2.1875 12.9375 4.7059 12.9375 7.8125C12.9375 9.06142 12.5305 10.2153 11.8418 11.1486L15.6676 14.9744C15.7774 15.0843 15.7774 15.2623 15.6676 15.3722L14.8722 16.1676C14.7624 16.2774 14.5843 16.2774 14.4745 16.1676L10.6487 12.3418ZM11.2852 7.83008C11.2852 10.0144 9.51441 11.7852 7.33008 11.7852C5.14575 11.7852 3.375 10.0144 3.375 7.83008C3.375 5.64575 5.14575 3.875 7.33008 3.875C9.51441 3.875 11.2852 5.64575 11.2852 7.83008Z" fill="#2A295C"/>
</g>
</svg>
