<svg width="18" height="19" viewBox="0 0 18 19" fill="none" xmlns="http://www.w3.org/2000/svg">
<g id="material-symbols:download-rounded">
<path id="Vector" d="M9 12.1813C8.9 12.1813 8.80625 12.1658 8.71875 12.1348C8.63125 12.1038 8.55 12.0505 8.475 11.975L5.775 9.275C5.625 9.125 5.553 8.95 5.559 8.75C5.565 8.55 5.637 8.375 5.775 8.225C5.925 8.075 6.10325 7.997 6.30975 7.991C6.51625 7.985 6.69425 8.05675 6.84375 8.20625L8.25 9.6125V4.25C8.25 4.0375 8.322 3.8595 8.466 3.716C8.61 3.5725 8.788 3.5005 9 3.5C9.212 3.4995 9.39025 3.5715 9.53475 3.716C9.67925 3.8605 9.751 4.0385 9.75 4.25V9.6125L11.1562 8.20625C11.3062 8.05625 11.4845 7.98425 11.691 7.99025C11.8975 7.99625 12.0755 8.0745 12.225 8.225C12.3625 8.375 12.4345 8.55 12.441 8.75C12.4475 8.95 12.3755 9.125 12.225 9.275L9.525 11.975C9.45 12.05 9.36875 12.1033 9.28125 12.1348C9.19375 12.1663 9.1 12.1818 9 12.1813ZM4.5 15.5C4.0875 15.5 3.7345 15.3533 3.441 15.0598C3.1475 14.7663 3.0005 14.413 3 14V12.5C3 12.2875 3.072 12.1095 3.216 11.966C3.36 11.8225 3.538 11.7505 3.75 11.75C3.962 11.7495 4.14025 11.8215 4.28475 11.966C4.42925 12.1105 4.501 12.2885 4.5 12.5V14H13.5V12.5C13.5 12.2875 13.572 12.1095 13.716 11.966C13.86 11.8225 14.038 11.7505 14.25 11.75C14.462 11.7495 14.6402 11.8215 14.7847 11.966C14.9292 12.1105 15.001 12.2885 15 12.5V14C15 14.4125 14.8532 14.7658 14.5597 15.0598C14.2662 15.3538 13.913 15.5005 13.5 15.5H4.5Z" fill="#283897"/>
</g>
</svg>
