<svg width="28" height="28" viewBox="0 0 28 28" fill="none" xmlns="http://www.w3.org/2000/svg">
<g id="mingcute:announcement-line">
<g id="Group">
<path id="Vector" fill-rule="evenodd" clip-rule="evenodd" d="M14.6911 27.1368L14.6782 27.1391L14.5954 27.18L14.5721 27.1846L14.5557 27.18L14.4729 27.1391C14.4604 27.1352 14.4511 27.1372 14.4449 27.145L14.4402 27.1566L14.4204 27.656L14.4262 27.6793L14.4379 27.6945L14.5592 27.7808L14.5767 27.7855L14.5907 27.7808L14.7121 27.6945L14.7261 27.6758L14.7307 27.656L14.7109 27.1578C14.7078 27.1453 14.7012 27.1383 14.6911 27.1368ZM15.0002 27.005L14.9851 27.0073L14.7692 27.1158L14.7576 27.1275L14.7541 27.1403L14.7751 27.642L14.7809 27.656L14.7902 27.6641L15.0247 27.7726C15.0395 27.7765 15.0508 27.7734 15.0586 27.7633L15.0632 27.747L15.0236 27.0306C15.0197 27.0166 15.0119 27.0081 15.0002 27.005ZM14.1661 27.0073C14.1609 27.0042 14.1548 27.0032 14.1489 27.0045C14.143 27.0058 14.1379 27.0093 14.1346 27.0143L14.1276 27.0306L14.0879 27.747C14.0887 27.761 14.0953 27.7703 14.1077 27.775L14.1252 27.7726L14.3597 27.6641L14.3714 27.6548L14.3761 27.642L14.3959 27.1403L14.3924 27.1263L14.3807 27.1146L14.1661 27.0073Z" fill="#283897"/>
<path id="Vector_2" fill-rule="evenodd" clip-rule="evenodd" d="M22.1664 5.53229V9.33446C22.626 9.33446 23.0811 9.42499 23.5058 9.60088C23.9304 9.77677 24.3163 10.0346 24.6413 10.3596C24.9663 10.6846 25.2241 11.0704 25.4 11.4951C25.5759 11.9197 25.6664 12.3748 25.6664 12.8345C25.6664 13.2941 25.5759 13.7492 25.4 14.1739C25.2241 14.5985 24.9663 14.9843 24.6413 15.3093C24.3163 15.6343 23.9304 15.8921 23.5058 16.068C23.0811 16.2439 22.626 16.3345 22.1664 16.3345V19.8345C22.1664 21.7571 19.9719 22.855 18.433 21.7011L16.0297 19.8975C14.745 18.9343 13.2492 18.2912 11.6664 18.0215V21.3395C11.6665 22.1022 11.3909 22.8392 10.8904 23.4147C10.3899 23.9902 9.69827 24.3654 8.94293 24.4711C8.1876 24.5768 7.4195 24.406 6.78024 23.99C6.14098 23.574 5.67365 22.9409 5.46438 22.2075L3.63272 15.7955C2.97357 15.017 2.54461 14.0702 2.39405 13.0614C2.24349 12.0526 2.3773 11.0217 2.78045 10.0848C3.18359 9.14784 3.84008 8.34191 4.67612 7.75759C5.51217 7.17327 6.49462 6.83372 7.51305 6.77712L11.034 6.58112C12.7568 6.48543 14.4322 5.98201 15.9224 5.11229L18.657 3.51629C20.2134 2.60979 22.1664 3.73096 22.1664 5.53229ZM6.57272 17.5921L7.70788 21.567C7.76251 21.7594 7.88491 21.9255 8.05248 22.0347C8.22005 22.1439 8.42147 22.1888 8.61955 22.161C8.81763 22.1333 8.99898 22.0349 9.13013 21.8838C9.26127 21.7328 9.33335 21.5395 9.33305 21.3395V17.8278L7.51305 17.7263C7.19648 17.7072 6.88199 17.6623 6.57272 17.5921ZM19.833 5.53229L17.0972 7.12946C15.4358 8.09979 13.5822 8.69471 11.6664 8.87246V15.6613C13.7512 15.9483 15.7357 16.7615 17.4297 18.0308L19.833 19.8345V5.53229ZM9.33305 9.01246L7.64138 9.10579C6.8544 9.14924 6.11231 9.48615 5.56158 10.05C5.01086 10.6139 4.69153 11.3637 4.66662 12.1515C4.64171 12.9392 4.91304 13.7077 5.42705 14.3053C5.94105 14.9028 6.66039 15.2859 7.44305 15.379L7.64138 15.3965L9.33305 15.4898V9.01246ZM22.1664 11.6678V14.0011C22.4637 14.0008 22.7498 13.8869 22.966 13.6828C23.1822 13.4787 23.3123 13.1997 23.3297 12.9028C23.3472 12.606 23.2506 12.3137 23.0597 12.0857C22.8689 11.8576 22.5982 11.7111 22.3029 11.676L22.1664 11.6678Z" fill="#283897"/>
</g>
</g>
</svg>
