<svg width="19" height="19" viewBox="0 0 19 19" fill="none" xmlns="http://www.w3.org/2000/svg">
<g id="Frame 1597883157">
<path id="Vector" d="M9.50054 6.35514L8.26592 7.59537C8.216 7.64529 8.15061 7.6706 8.09085 7.6706C8.03109 7.6706 7.96078 7.64529 7.91578 7.59537C7.81594 7.49553 7.81594 7.34015 7.91578 7.24031L9.1504 6.00007L7.91578 4.75984C7.81594 4.66 7.81594 4.50462 7.91578 4.40478C8.01562 4.30494 8.17101 4.30494 8.27085 4.40478L9.50546 5.64501L10.7401 4.40478C10.8399 4.30494 10.9953 4.30494 11.0951 4.40478C11.195 4.50462 11.195 4.66 11.0951 4.75984L9.86053 6.00007L11.0951 7.24031C11.195 7.34015 11.195 7.49553 11.0951 7.59537C11.0452 7.64529 10.9798 7.6706 10.9201 7.6706C10.8603 7.6706 10.79 7.64529 10.745 7.59537L9.51039 6.35514H9.50054ZM14.7505 13V17.4997C14.7505 17.6396 14.6408 17.75 14.5002 17.75C14.3603 17.75 14.2499 17.6403 14.2499 17.4997V16.7495H4.75059V17.4997C4.75059 17.6396 4.6409 17.75 4.50029 17.75C4.36038 17.75 4.25 17.6403 4.25 17.4997V13C4.25 12.8601 4.35968 12.7497 4.50029 12.7497H9.12025L8.18516 10.5702C6.15542 9.98523 4.74574 8.12558 4.74574 6.00009C4.74574 3.38035 6.87538 1.25 9.49584 1.25C12.1156 1.25 14.2459 3.37963 14.2459 6.00009C14.2459 8.12486 12.8412 9.98523 10.8065 10.5702L9.87142 12.7497H14.4914C14.6313 12.7497 14.7417 12.8594 14.7417 13H14.7505ZM8.60059 10.26L9.50054 12.365L10.4005 10.26C10.4307 10.1897 10.4905 10.1349 10.5657 10.1152C12.4408 9.62511 13.7506 7.93568 13.7506 5.99504C13.7506 3.65032 11.846 1.74567 9.50125 1.74567C7.15653 1.74567 5.25189 3.65032 5.25189 5.99504C5.25189 7.92992 6.56172 9.62506 8.43679 10.1152C8.51202 10.1349 8.57179 10.1904 8.60202 10.26H8.60059ZM4.75044 16.2495H14.2497V13.2494H4.75044V16.2495Z" fill="#DA558C"/>
</g>
</svg>
