<svg width="37" height="37" viewBox="0 0 37 37" fill="none" xmlns="http://www.w3.org/2000/svg">
<g id="Group 2156">
<rect id="Rectangle 4190" x="0.5" y="0.5" width="36" height="36" rx="4" fill="#BAFFD8"/>
<path id="Vector" d="M28.22 25.066C27.9533 25.4242 27.5 25.1252 27.5 24.6786V11.116C27.5 10.936 27.4423 10.7883 27.327 10.673C27.2117 10.5577 27.0643 10.5 26.885 10.5H10.115C9.93567 10.5 9.78833 10.5577 9.673 10.673C9.55767 10.7883 9.5 10.936 9.5 11.116V18C9.5 18.2761 9.27614 18.5 9 18.5C8.72386 18.5 8.5 18.2761 8.5 18V11.116C8.5 10.668 8.65733 10.2867 8.972 9.972C9.28667 9.65733 9.668 9.5 10.116 9.5H26.885C27.3317 9.5 27.7127 9.65733 28.028 9.972C28.3427 10.2867 28.5 10.668 28.5 11.116V24.212C28.5 24.5313 28.4067 24.816 28.22 25.066ZM15.5 19.385C14.6693 19.385 13.9617 19.0927 13.377 18.508C12.7923 17.9233 12.5 17.2157 12.5 16.385C12.5 15.5543 12.7923 14.8467 13.377 14.262C13.9617 13.6773 14.6693 13.385 15.5 13.385C16.3307 13.385 17.0383 13.6773 17.623 14.262C18.2077 14.8467 18.5 15.5543 18.5 16.385C18.5 17.2157 18.2077 17.9233 17.623 18.508C17.0383 19.0927 16.3307 19.385 15.5 19.385ZM10.145 26.6151C9.23647 26.6151 8.5 25.8785 8.5 24.97C8.5 24.5573 8.62 24.1713 8.86 23.812C9.10067 23.452 9.424 23.1727 9.83 22.974C10.774 22.5213 11.7187 22.182 12.664 21.956C13.6087 21.7293 14.554 21.616 15.5 21.616C16.446 21.616 17.3917 21.7293 18.337 21.956C19.2823 22.1827 20.2263 22.522 21.169 22.974C21.5757 23.1727 21.899 23.452 22.139 23.812C22.3797 24.1713 22.5 24.5573 22.5 24.97C22.5 25.879 21.763 26.6159 20.854 26.6159L10.145 26.6151Z" fill="#34A866"/>
</g>
</svg>
