<svg width="21" height="19" viewBox="0 0 21 19" fill="none" xmlns="http://www.w3.org/2000/svg">
<g id="Layer 2">
<g id="Layer 1">
<path id="Vector" d="M19.009 18.4989H1.99265C1.49732 18.4989 1.02227 18.3022 0.672022 17.9519C0.32177 17.6017 0.125 17.1266 0.125 16.6313L0.125 4.14499C0.125 3.64966 0.32177 3.17462 0.672022 2.82437C1.02227 2.47411 1.49732 2.27734 1.99265 2.27734H19.009C19.5044 2.27734 19.9794 2.47411 20.3297 2.82437C20.6799 3.17462 20.8767 3.64966 20.8767 4.14499V16.6334C20.8761 17.1283 20.6791 17.6028 20.3289 17.9526C19.9787 18.3024 19.504 18.4989 19.009 18.4989ZM1.99265 3.31493C1.7725 3.31493 1.56137 3.40238 1.4057 3.55805C1.25004 3.71372 1.16258 3.92485 1.16258 4.14499V16.6334C1.16258 16.8535 1.25004 17.0646 1.4057 17.2203C1.56137 17.376 1.7725 17.4634 1.99265 17.4634H19.009C19.2292 17.4634 19.4403 17.376 19.596 17.2203C19.7516 17.0646 19.8391 16.8535 19.8391 16.6334V4.14499C19.8391 3.92485 19.7516 3.71372 19.596 3.55805C19.4403 3.40238 19.2292 3.31493 19.009 3.31493H1.99265Z" fill="#199CDA"/>
<path id="Vector_2" d="M3.3977 4.05476C3.26011 4.05476 3.12815 4.0001 3.03086 3.90281C2.93356 3.80552 2.87891 3.67356 2.87891 3.53597V1.01879C2.87891 0.8812 2.93356 0.749243 3.03086 0.651951C3.12815 0.554658 3.26011 0.5 3.3977 0.5C3.53529 0.5 3.66725 0.554658 3.76454 0.651951C3.86183 0.749243 3.91649 0.8812 3.91649 1.01879V3.53597C3.91649 3.67356 3.86183 3.80552 3.76454 3.90281C3.66725 4.0001 3.53529 4.05476 3.3977 4.05476Z" fill="#199CDA"/>
<path id="Vector_3" d="M17.2395 4.05476C17.1019 4.05476 16.9699 4.0001 16.8727 3.90281C16.7754 3.80552 16.7207 3.67356 16.7207 3.53597V1.01879C16.7207 0.8812 16.7754 0.749243 16.8727 0.651951C16.9699 0.554658 17.1019 0.5 17.2395 0.5C17.3771 0.5 17.509 0.554658 17.6063 0.651951C17.7036 0.749243 17.7583 0.8812 17.7583 1.01879V3.53597C17.7583 3.67356 17.7036 3.80552 17.6063 3.90281C17.509 4.0001 17.3771 4.05476 17.2395 4.05476Z" fill="#199CDA"/>
<path id="Vector_4" d="M20.3115 7.07274H0.688714C0.551122 7.07274 0.419165 7.01808 0.321872 6.92079C0.22458 6.8235 0.169922 6.69154 0.169922 6.55395C0.169922 6.41636 0.22458 6.2844 0.321872 6.18711C0.419165 6.08981 0.551122 6.03516 0.688714 6.03516H20.3115C20.4491 6.03516 20.581 6.08981 20.6783 6.18711C20.7756 6.2844 20.8303 6.41636 20.8303 6.55395C20.8303 6.69154 20.7756 6.8235 20.6783 6.92079C20.581 7.01808 20.4491 7.07274 20.3115 7.07274Z" fill="#199CDA"/>
<path id="Vector_5" d="M16.3113 14.7007C16.2429 14.7005 16.1753 14.6869 16.1123 14.6605C16.0493 14.6342 15.9921 14.5956 15.944 14.5471L12.3435 10.9571C12.2461 10.8596 12.1914 10.7275 12.1914 10.5898C12.1914 10.452 12.2461 10.3199 12.3435 10.2225C12.441 10.125 12.5731 10.0703 12.7109 10.0703C12.8486 10.0703 12.9807 10.125 13.0782 10.2225L16.6682 13.8146C16.7164 13.8626 16.7547 13.9197 16.7809 13.9825C16.807 14.0454 16.8204 14.1128 16.8204 14.1808C16.8204 14.2489 16.807 14.3163 16.7809 14.3792C16.7547 14.442 16.7164 14.4991 16.6682 14.5471C16.5741 14.6433 16.4458 14.6985 16.3113 14.7007Z" fill="#199CDA"/>
<path id="Vector_6" d="M12.7102 14.7024C12.6079 14.7017 12.5081 14.6708 12.4232 14.6136C12.3384 14.5564 12.2722 14.4756 12.2331 14.3811C12.1939 14.2865 12.1834 14.1826 12.2029 14.0822C12.2225 13.9817 12.2711 13.8893 12.3429 13.8164L15.935 10.2242C15.9829 10.1748 16.0402 10.1353 16.1036 10.1082C16.1669 10.0811 16.235 10.0669 16.3039 10.0664C16.3727 10.0659 16.441 10.0791 16.5048 10.1053C16.5685 10.1315 16.6263 10.1701 16.675 10.2189C16.7236 10.2677 16.7621 10.3256 16.7881 10.3894C16.8141 10.4532 16.8271 10.5215 16.8264 10.5904C16.8257 10.6593 16.8113 10.7274 16.784 10.7906C16.7567 10.8539 16.7171 10.9111 16.6675 10.9588L13.0775 14.5489C13.0294 14.5974 12.9722 14.636 12.9092 14.6623C12.8461 14.6887 12.7785 14.7023 12.7102 14.7024Z" fill="#199CDA"/>
</g>
</g>
</svg>
