<svg width="19" height="20" viewBox="0 0 19 20" fill="none" xmlns="http://www.w3.org/2000/svg">
<g id="stash:data-date">
<path id="Vector" d="M6.72982 11.5846C6.99227 11.5846 7.24398 11.4804 7.42956 11.2948C7.61514 11.1092 7.7194 10.8575 7.7194 10.5951C7.7194 10.3326 7.61514 10.0809 7.42956 9.89531C7.24398 9.70973 6.99227 9.60547 6.72982 9.60547C6.46736 9.60547 6.21566 9.70973 6.03008 9.89531C5.84449 10.0809 5.74023 10.3326 5.74023 10.5951C5.74023 10.8575 5.84449 11.1092 6.03008 11.2948C6.21566 11.4804 6.46736 11.5846 6.72982 11.5846ZM6.72982 14.3555C6.99227 14.3555 7.24398 14.2512 7.42956 14.0656C7.61514 13.88 7.7194 13.6283 7.7194 13.3659C7.7194 13.1034 7.61514 12.8517 7.42956 12.6661C7.24398 12.4806 6.99227 12.3763 6.72982 12.3763C6.46736 12.3763 6.21566 12.4806 6.03008 12.6661C5.84449 12.8517 5.74023 13.1034 5.74023 13.3659C5.74023 13.6283 5.84449 13.88 6.03008 14.0656C6.21566 14.2512 6.46736 14.3555 6.72982 14.3555ZM10.4902 10.5951C10.4902 10.8575 10.386 11.1092 10.2004 11.2948C10.0148 11.4804 9.76311 11.5846 9.50065 11.5846C9.2382 11.5846 8.98649 11.4804 8.80091 11.2948C8.61533 11.1092 8.51107 10.8575 8.51107 10.5951C8.51107 10.3326 8.61533 10.0809 8.80091 9.89531C8.98649 9.70973 9.2382 9.60547 9.50065 9.60547C9.76311 9.60547 10.0148 9.70973 10.2004 9.89531C10.386 10.0809 10.4902 10.3326 10.4902 10.5951ZM9.50065 14.3555C9.76311 14.3555 10.0148 14.2512 10.2004 14.0656C10.386 13.88 10.4902 13.6283 10.4902 13.3659C10.4902 13.1034 10.386 12.8517 10.2004 12.6661C10.0148 12.4806 9.76311 12.3763 9.50065 12.3763C9.2382 12.3763 8.98649 12.4806 8.80091 12.6661C8.61533 12.8517 8.51107 13.1034 8.51107 13.3659C8.51107 13.6283 8.61533 13.88 8.80091 14.0656C8.98649 14.2512 9.2382 14.3555 9.50065 14.3555ZM13.2611 10.5951C13.2611 10.8575 13.1568 11.1092 12.9712 11.2948C12.7856 11.4804 12.5339 11.5846 12.2715 11.5846C12.009 11.5846 11.7573 11.4804 11.5717 11.2948C11.3862 11.1092 11.2819 10.8575 11.2819 10.5951C11.2819 10.3326 11.3862 10.0809 11.5717 9.89531C11.7573 9.70973 12.009 9.60547 12.2715 9.60547C12.5339 9.60547 12.7856 9.70973 12.9712 9.89531C13.1568 10.0809 13.2611 10.3326 13.2611 10.5951Z" fill="#2A295C"/>
<path id="Vector_2" fill-rule="evenodd" clip-rule="evenodd" d="M6.33398 3.07422C6.49146 3.07422 6.64248 3.13677 6.75383 3.24812C6.86518 3.35947 6.92773 3.5105 6.92773 3.66797V4.26172H12.0736V3.66797C12.0736 3.5105 12.1361 3.35947 12.2475 3.24812C12.3588 3.13677 12.5098 3.07422 12.6673 3.07422C12.8248 3.07422 12.9758 3.13677 13.0872 3.24812C13.1985 3.35947 13.2611 3.5105 13.2611 3.66797V4.26805C13.3814 4.27122 13.4936 4.27702 13.5975 4.28547C13.8984 4.30922 14.1802 4.36305 14.447 4.49922C14.8567 4.70796 15.1898 5.04107 15.3986 5.4508C15.5347 5.71759 15.5886 5.99943 15.6123 6.30026C15.6361 6.58922 15.6361 6.94151 15.6361 7.36505V13.4292C15.6361 13.8528 15.6361 14.2051 15.6123 14.494C15.5886 14.7948 15.5347 15.0767 15.3986 15.3435C15.19 15.7531 14.8572 16.0862 14.4478 16.2951C14.1802 16.4312 13.8984 16.4851 13.5975 16.5088C13.3086 16.5326 12.9563 16.5326 12.5335 16.5326H6.46857C6.04503 16.5326 5.69273 16.5326 5.40378 16.5088C5.10294 16.4851 4.82111 16.4312 4.55432 16.2951C4.14483 16.0867 3.81174 15.7542 3.60273 15.3451C3.46657 15.0775 3.41273 14.7956 3.38898 14.4948C3.36523 14.2058 3.36523 13.8536 3.36523 13.4308V7.36505C3.36523 6.94151 3.36523 6.58922 3.38898 6.30026C3.41273 5.99943 3.46657 5.71759 3.60273 5.4508C3.81147 5.04107 4.14459 4.70796 4.55432 4.49922C4.82111 4.36305 5.10294 4.30922 5.40378 4.28547C5.50775 4.27702 5.6199 4.27122 5.74023 4.26805V3.66797C5.74023 3.59 5.75559 3.51279 5.78543 3.44075C5.81527 3.36871 5.85901 3.30326 5.91414 3.24812C5.96927 3.19299 6.03473 3.14925 6.10677 3.11942C6.1788 3.08958 6.25601 3.07422 6.33398 3.07422ZM5.74023 5.64714V5.45555C5.66018 5.45801 5.58019 5.4625 5.50036 5.46901C5.27315 5.48722 5.16469 5.52047 5.09344 5.55689C4.90694 5.65181 4.75533 5.80342 4.6604 5.98993C4.62398 6.06118 4.59073 6.16964 4.57253 6.39684C4.55353 6.63118 4.55273 6.93518 4.55273 7.3888V7.82422H14.4486V7.3888C14.4486 6.93597 14.4486 6.63118 14.4288 6.39684C14.4106 6.16964 14.3773 6.06118 14.3409 5.98993C14.246 5.80342 14.0944 5.65181 13.9079 5.55689C13.8366 5.52047 13.7282 5.48722 13.5002 5.46901C13.4206 5.46252 13.3409 5.45803 13.2611 5.45555V5.64714C13.2611 5.80461 13.1985 5.95563 13.0872 6.06698C12.9758 6.17833 12.8248 6.24089 12.6673 6.24089C12.5098 6.24089 12.3588 6.17833 12.2475 6.06698C12.1361 5.95563 12.0736 5.80461 12.0736 5.64714V5.44922H6.92773V5.64714C6.92773 5.80461 6.86518 5.95563 6.75383 6.06698C6.64248 6.17833 6.49146 6.24089 6.33398 6.24089C6.17651 6.24089 6.02549 6.17833 5.91414 6.06698C5.80279 5.95563 5.74023 5.80461 5.74023 5.64714ZM14.4486 8.61589H4.55273V13.4055C4.55273 13.8583 4.55273 14.1631 4.57253 14.3966C4.59073 14.6246 4.62398 14.7331 4.6604 14.8043C4.7554 14.9912 4.90661 15.1424 5.09344 15.2374C5.16469 15.2738 5.27315 15.3071 5.50036 15.3253C5.73469 15.3443 6.03869 15.3451 6.49232 15.3451H12.509C12.9618 15.3451 13.2666 15.3451 13.5002 15.3253C13.7282 15.3071 13.8366 15.2738 13.9079 15.2374C14.0944 15.1425 14.246 14.9908 14.3409 14.8043C14.3773 14.7331 14.4106 14.6246 14.4288 14.3966C14.4478 14.1631 14.4486 13.8583 14.4486 13.4055V8.61589Z" fill="#2A295C"/>
<path id="Vector_3" fill-rule="evenodd" clip-rule="evenodd" d="M7.71875 6.63672C7.71875 6.47925 7.78131 6.32822 7.89266 6.21687C8.00401 6.10552 8.15503 6.04297 8.3125 6.04297H10.6875C10.845 6.04297 10.996 6.10552 11.1073 6.21687C11.2187 6.32822 11.2812 6.47925 11.2812 6.63672C11.2812 6.79419 11.2187 6.94521 11.1073 7.05656C10.996 7.16791 10.845 7.23047 10.6875 7.23047H8.3125C8.15503 7.23047 8.00401 7.16791 7.89266 7.05656C7.78131 6.94521 7.71875 6.79419 7.71875 6.63672Z" fill="#2A295C"/>
</g>
</svg>
