<svg width="24" height="24" viewBox="0 0 24 24" fill="none" xmlns="http://www.w3.org/2000/svg">
<g id="material-symbols-light:print-outline">
<path id="Vector" d="M16.0001 8.61719V5.61719H8.00015V8.61719H7.00015V4.61719H17.0001V8.61719H16.0001ZM17.6151 12.1172C17.8985 12.1172 18.1361 12.0212 18.3281 11.8292C18.5201 11.6372 18.6158 11.3999 18.6151 11.1172C18.6145 10.8345 18.5188 10.5969 18.3281 10.4042C18.1375 10.2115 17.8998 10.1155 17.6151 10.1162C17.3305 10.1169 17.0931 10.2129 16.9031 10.4042C16.7131 10.5955 16.6171 10.8332 16.6151 11.1172C16.6131 11.4012 16.7091 11.6385 16.9031 11.8292C17.0971 12.0199 17.3338 12.1159 17.6151 12.1172ZM16.0001 19.0012V14.4632H8.00015V19.0012H16.0001ZM17.0001 20.0012H7.00015V16.0012H3.57715V10.6172C3.57715 10.0505 3.76948 9.57552 4.15415 9.19219C4.53882 8.80885 5.01315 8.61685 5.57715 8.61619H18.4231C18.9898 8.61619 19.4648 8.80819 19.8481 9.19219C20.2315 9.57619 20.4231 10.0509 20.4231 10.6162V16.0012H17.0001V20.0012ZM19.4231 15.0012V10.6172C19.4231 10.3339 19.3275 10.0962 19.1361 9.90419C18.9448 9.71219 18.7071 9.61619 18.4231 9.61619H5.57715C5.29382 9.61619 5.05648 9.71219 4.86515 9.90419C4.67382 10.0962 4.57782 10.3339 4.57715 10.6172V15.0012H7.00015V13.4632H17.0001V15.0012H19.4231Z" fill="#2A295C"/>
</g>
</svg>
