<svg width="24" height="25" viewBox="0 0 24 25" fill="none" xmlns="http://www.w3.org/2000/svg">
<g id="akar-icons:reciept">
<g id="Group">
<path id="Vector" d="M19 21.5H7C5.93913 21.5 4.92172 21.0786 4.17157 20.3284C3.42143 19.5783 3 18.5609 3 17.5V5.5C3 4.96957 3.21071 4.46086 3.58579 4.08579C3.96086 3.71071 4.46957 3.5 5 3.5H15C15.5304 3.5 16.0391 3.71071 16.4142 4.08579C16.7893 4.46086 17 4.96957 17 5.5V18.5C17 20.157 17.343 21.5 19 21.5Z" stroke="#199CDA" stroke-linecap="round" stroke-linejoin="round"/>
<path id="Vector_2" d="M21 10.5C21 9.96957 20.7893 9.46086 20.4142 9.08579C20.0391 8.71071 19.5304 8.5 19 8.5H17V19C17 20.38 17.62 21.5 19 21.5C20.38 21.5 21 20.38 21 19V10.5Z" stroke="#199CDA" stroke-linecap="round" stroke-linejoin="round"/>
<path id="Vector_3" d="M13 11.5H7M13 7.5H7M10 15.5H7" stroke="#199CDA" stroke-linecap="round"/>
</g>
</g>
</svg>
