<svg width="24" height="25" viewBox="0 0 24 25" fill="none" xmlns="http://www.w3.org/2000/svg">
<g id="carbon:bus">
<path id="Vector" d="M20.25 8.75H21.75V11.75H20.25V8.75ZM2.25 8.75H3.75V11.75H2.25V8.75ZM15 15.5H16.5V17H15V15.5ZM7.5 15.5H9V17H7.5V15.5Z" fill="#283897"/>
<path id="Vector_2" d="M15.75 3.5H8.25C7.2558 3.50119 6.30267 3.89666 5.59966 4.59966C4.89666 5.30267 4.50119 6.2558 4.5 7.25V17.75C4.5 18.1478 4.65804 18.5294 4.93934 18.8107C5.22064 19.092 5.60218 19.25 6 19.25V21.5H7.5V19.25H16.5V21.5H18V19.25C18.3976 19.2494 18.7788 19.0912 19.06 18.81C19.3412 18.5288 19.4994 18.1476 19.5 17.75V7.25C19.4988 6.2558 19.1033 5.30267 18.4003 4.59966C17.6973 3.89666 16.7442 3.50119 15.75 3.5ZM18 8V12.5H6V8H18ZM8.25 5H15.75C16.2138 5.00138 16.6659 5.14631 17.044 5.41488C17.4222 5.68346 17.7079 6.06252 17.862 6.5H6.138C6.29209 6.06252 6.57783 5.68346 6.95599 5.41488C7.33415 5.14631 7.78617 5.00138 8.25 5ZM6 17.75V14H18.0007L18.0015 17.75H6Z" fill="#283897"/>
</g>
</svg>
