<svg width="24" height="25" viewBox="0 0 24 25" fill="none" xmlns="http://www.w3.org/2000/svg">
<g id="mage:book">
<path id="Vector" d="M12 20.1457C10.649 19.1947 9.085 18.5887 7.445 18.3847C6.28185 18.1484 5.09682 18.0368 3.91 18.0517C3.75814 18.0531 3.60752 18.0243 3.46684 17.9671C3.32616 17.9099 3.1982 17.8254 3.09035 17.7185C2.98251 17.6116 2.8969 17.4843 2.83849 17.3442C2.78007 17.204 2.74999 17.0536 2.75 16.9017L2.771 6.00875C2.77036 5.71647 2.88103 5.43492 3.08053 5.22131C3.28002 5.0077 3.55336 4.87806 3.845 4.85875C5.05314 4.83473 6.2603 4.9427 7.445 5.18075C9.08322 5.3921 10.646 5.99663 12 6.94275M12 20.1457V6.94275M12 20.1457C13.351 19.1947 14.915 18.5887 16.555 18.3847C17.7182 18.1484 18.9032 18.0368 20.09 18.0517C20.2419 18.0531 20.3925 18.0243 20.5332 17.9671C20.6738 17.9099 20.8018 17.8254 20.9096 17.7185C21.0175 17.6116 21.1031 17.4843 21.1615 17.3442C21.2199 17.204 21.25 17.0536 21.25 16.9017L21.228 6.00875C21.2287 5.71663 21.1181 5.43522 20.9188 5.22163C20.7196 5.00805 20.4465 4.87831 20.155 4.85875C18.9469 4.83473 17.7397 4.9427 16.555 5.18075C14.9168 5.3921 13.354 5.99663 12 6.94275" stroke="#34A866" stroke-linecap="round" stroke-linejoin="round"/>
</g>
</svg>
