<svg width="24" height="25" viewBox="0 0 24 25" fill="none" xmlns="http://www.w3.org/2000/svg">
<g id="mage:user">
<path id="Vector" d="M19.6188 21.75C19.6188 18.148 15.6028 15.22 12.0008 15.22C8.39881 15.22 4.38281 18.148 4.38281 21.75M12.0008 11.956C13.1553 11.956 14.2625 11.4974 15.0788 10.681C15.8952 9.86469 16.3538 8.75749 16.3538 7.603C16.3538 6.44851 15.8952 5.34131 15.0788 4.52496C14.2625 3.70862 13.1553 3.25 12.0008 3.25C10.8463 3.25 9.73912 3.70862 8.92278 4.52496C8.10643 5.34131 7.64781 6.44851 7.64781 7.603C7.64781 8.75749 8.10643 9.86469 8.92278 10.681C9.73912 11.4974 10.8463 11.956 12.0008 11.956Z" stroke="#EF661A" stroke-width="1.5" stroke-linecap="round" stroke-linejoin="round"/>
</g>
</svg>
