<svg width="24" height="25" viewBox="0 0 24 25" fill="none" xmlns="http://www.w3.org/2000/svg">
<g id="material-symbols-light:feedback-outline">
<path id="Vector" d="M12 14.923C12.1807 14.923 12.3283 14.8657 12.443 14.751C12.5583 14.6363 12.616 14.4887 12.616 14.308C12.616 14.1267 12.5583 13.9787 12.443 13.864C12.3283 13.7493 12.1807 13.692 12 13.692C11.8193 13.692 11.6717 13.7493 11.557 13.864C11.4423 13.9787 11.3847 14.1267 11.384 14.308C11.3833 14.4893 11.441 14.637 11.557 14.751C11.673 14.865 11.8207 14.9223 12 14.923ZM11.5 11.962H12.5V5.885H11.5V11.962ZM3 20.577V5.116C3 4.65533 3.15433 4.271 3.463 3.963C3.77167 3.655 4.15567 3.50067 4.615 3.5H19.385C19.845 3.5 20.229 3.65433 20.537 3.963C20.845 4.27167 20.9993 4.656 21 5.116V15.885C21 16.345 20.8457 16.7293 20.537 17.038C20.2283 17.3467 19.8443 17.5007 19.385 17.5H6.077L3 20.577ZM5.65 16.5H19.385C19.5383 16.5 19.6793 16.436 19.808 16.308C19.9367 16.18 20.0007 16.039 20 15.885V5.115C20 4.96167 19.936 4.82067 19.808 4.692C19.68 4.56333 19.539 4.49933 19.385 4.5H4.615C4.46167 4.5 4.32067 4.564 4.192 4.692C4.06333 4.82 3.99933 4.961 4 5.115V18.145L5.65 16.5Z" fill="#DA2020"/>
</g>
</svg>
