<svg width="24" height="25" viewBox="0 0 24 25" fill="none" xmlns="http://www.w3.org/2000/svg">
<g id="material-symbols-light:sick-outline">
<path id="Vector" d="M3.4246 9.83C3.98594 7.98467 5.04794 6.468 6.6106 5.28C8.17327 4.092 9.9696 3.49867 11.9996 3.5C13.1436 3.5 14.2196 3.69667 15.2276 4.09C16.2356 4.48334 17.1409 5.034 17.9436 5.742C17.8516 5.94467 17.7763 6.12967 17.7176 6.297C17.6596 6.46434 17.6119 6.62367 17.5746 6.775C16.8413 6.075 15.9996 5.521 15.0496 5.113C14.0996 4.705 13.0829 4.50067 11.9996 4.5C10.3163 4.5 8.80794 4.971 7.4746 5.913C6.14127 6.855 5.1746 8.059 4.5746 9.525C4.36794 9.521 4.1676 9.54334 3.9736 9.592C3.7796 9.64067 3.5966 9.72034 3.4246 9.831M11.9996 21.5C9.96894 21.5 8.17227 20.9097 6.6096 19.729C5.04694 18.5483 3.98527 17.035 3.4246 15.189C3.5926 15.299 3.7736 15.379 3.9676 15.429C4.1616 15.479 4.36394 15.5027 4.5746 15.5C5.1746 16.9667 6.14127 18.1667 7.4746 19.1C8.80794 20.0333 10.3163 20.5 11.9996 20.5C14.2163 20.5 16.1039 19.721 17.6626 18.163C19.2213 16.605 20.0003 14.7173 19.9996 12.5C19.9996 12.2167 19.9869 11.9333 19.9616 11.65C19.9363 11.3667 19.8906 11.0833 19.8246 10.8C19.9693 10.8413 20.1086 10.8787 20.2426 10.912C20.3766 10.9453 20.5199 10.9683 20.6726 10.981C20.7073 10.981 20.7419 10.979 20.7766 10.975C20.8113 10.971 20.8439 10.9653 20.8746 10.958C20.9213 11.2113 20.9536 11.464 20.9716 11.716C20.9903 11.968 20.9996 12.2293 20.9996 12.5C20.9996 13.7427 20.7629 14.9113 20.2896 16.006C19.8156 17.1007 19.1736 18.053 18.3636 18.863C17.5529 19.6737 16.6003 20.3157 15.5056 20.789C14.4109 21.263 13.2423 21.5 11.9996 21.5ZM8.3996 11.677L10.0576 10L8.3746 8.317L7.7666 8.925L8.8416 9.975L7.7666 11.05L8.3996 11.677ZM20.9996 9.192C20.5396 9.192 20.1426 9.02534 19.8086 8.692C19.4746 8.35734 19.3076 7.96 19.3076 7.5C19.3076 7.10134 19.4099 6.68634 19.6146 6.255C19.8199 5.82367 20.2816 5.08467 20.9996 4.038C21.7176 5.08467 22.1789 5.82367 22.3836 6.255C22.5889 6.68634 22.6916 7.10134 22.6916 7.5C22.6916 7.96 22.5249 8.357 22.1916 8.691C21.8569 9.025 21.4596 9.192 20.9996 9.192ZM15.6246 11.682L16.2576 11.05L15.1826 9.975L16.2326 8.925L15.6246 8.317L13.9416 10L15.6246 11.682ZM11.9996 14C11.5409 14 11.0849 14.066 10.6316 14.198C10.1783 14.33 9.74894 14.5327 9.3436 14.806L5.6916 12.673C5.6916 12.4317 5.64427 12.201 5.5496 11.981C5.45494 11.761 5.3036 11.5903 5.0956 11.469C4.8056 11.3077 4.50327 11.2683 4.1886 11.351C3.87394 11.4337 3.63394 11.618 3.4686 11.904C3.30727 12.194 3.26794 12.4963 3.3506 12.811C3.43327 13.1257 3.6176 13.3657 3.9036 13.531C4.11094 13.651 4.33527 13.6983 4.5766 13.673C4.81794 13.6477 5.04227 13.5743 5.2496 13.453L8.6096 15.391C8.40294 15.597 8.2096 15.821 8.0296 16.063C7.8496 16.305 7.69094 16.5787 7.5536 16.884H8.5496C8.8996 16.284 9.37461 15.8007 9.97461 15.434C10.5746 15.0673 11.2496 14.884 11.9996 14.884C12.7496 14.884 13.4246 15.0673 14.0246 15.434C14.6246 15.8007 15.0996 16.284 15.4496 16.884H16.4456C15.9816 15.9153 15.3466 15.1923 14.5406 14.715C13.7353 14.2383 12.8883 14 11.9996 14Z" fill="#EF661A"/>
</g>
</svg>
