<svg width="24" height="25" viewBox="0 0 24 25" fill="none" xmlns="http://www.w3.org/2000/svg">
<g id="prime:question">
<path id="Vector" d="M16.07 5.43047C15.2658 4.62465 14.2405 4.07568 13.124 3.85313C12.0076 3.63058 10.8501 3.74446 9.79845 4.18035C8.74676 4.61623 7.84812 5.3545 7.21641 6.30161C6.58471 7.24871 6.24837 8.36203 6.25001 9.50047C6.25001 9.69938 6.32902 9.89015 6.46968 10.0308C6.61033 10.1715 6.80109 10.2505 7.00001 10.2505C7.19892 10.2505 7.38968 10.1715 7.53034 10.0308C7.67099 9.89015 7.75001 9.69938 7.75001 9.50047C7.74803 8.65708 7.99644 7.83207 8.46378 7.12999C8.93111 6.4279 9.59633 5.88034 10.3752 5.55667C11.154 5.233 12.0113 5.1478 12.8386 5.31185C13.6659 5.47591 14.4259 5.88184 15.0223 6.47821C15.6186 7.07458 16.0246 7.83456 16.1886 8.66185C16.3527 9.48914 16.2675 10.3465 15.9438 11.1253C15.6201 11.9041 15.0726 12.5694 14.3705 13.0367C13.6684 13.504 12.8434 13.7524 12 13.7505C11.8019 13.7531 11.6126 13.8329 11.4725 13.973C11.3324 14.1131 11.2526 14.3024 11.25 14.5005V16.5005C11.25 16.6994 11.329 16.8902 11.4697 17.0308C11.6103 17.1715 11.8011 17.2505 12 17.2505C12.1989 17.2505 12.3897 17.1715 12.5303 17.0308C12.671 16.8902 12.75 16.6994 12.75 16.5005V15.2005C13.813 15.0581 14.8152 14.6217 15.6436 13.9404C16.472 13.2592 17.0938 12.3602 17.4389 11.3447C17.784 10.3292 17.8387 9.23755 17.5968 8.19263C17.355 7.14772 16.8262 6.19109 16.07 5.43047Z" fill="#003CFF"/>
<path id="Vector_2" d="M12 21.25C12.6904 21.25 13.25 20.6904 13.25 20C13.25 19.3096 12.6904 18.75 12 18.75C11.3096 18.75 10.75 19.3096 10.75 20C10.75 20.6904 11.3096 21.25 12 21.25Z" fill="#003CFF"/>
</g>
</svg>
