<svg width="18" height="18" viewBox="0 0 18 18" fill="none" xmlns="http://www.w3.org/2000/svg">
<g id="si:user-fill" clip-path="url(#clip0_4410_12180)">
<path id="Vector" d="M4.6882 5.25C4.6882 4.10625 5.14255 3.00935 5.9513 2.2006C6.76005 1.39185 7.85695 0.9375 9.0007 0.9375C10.1444 0.9375 11.2413 1.39185 12.0501 2.2006C12.8588 3.00935 13.3132 4.10625 13.3132 5.25C13.3132 6.39375 12.8588 7.49065 12.0501 8.2994C11.2413 9.10815 10.1444 9.5625 9.0007 9.5625C7.85695 9.5625 6.76005 9.10815 5.9513 8.2994C5.14255 7.49065 4.6882 6.39375 4.6882 5.25ZM8.8492 10.6957C8.88148 10.6909 8.91405 10.6881 8.9467 10.6875H9.0547C9.0877 10.6875 9.1202 10.6902 9.1522 10.6957L14.6234 11.658L14.6519 11.664C15.6599 11.8965 16.7429 12.5363 16.9537 13.779L16.9567 13.8007L17.0422 14.4585V14.46C17.2402 15.9668 16.0454 17.0625 14.6347 17.0625C14.6036 17.0619 14.5725 17.0594 14.5417 17.055H3.3667C1.95595 17.055 0.760446 15.9585 0.959196 14.451L1.0447 13.7992L1.04845 13.7767C1.25845 12.5565 2.35045 11.8807 3.3562 11.6625L3.37795 11.658L8.8492 10.6957Z" fill="#E7E9F7"/>
</g>
<defs>
<clipPath id="clip0_4410_12180">
<rect width="18" height="18" fill="white"/>
</clipPath>
</defs>
</svg>
