<svg width="24" height="25" viewBox="0 0 24 25" fill="none" xmlns="http://www.w3.org/2000/svg">
<g id="solar:card-linear">
<g id="Group">
<path id="Vector" d="M3 12.5008C3 9.10688 3 7.40948 4.0548 6.35558C5.1096 5.30168 6.8061 5.30078 10.2 5.30078H13.8C17.1939 5.30078 18.8913 5.30078 19.9452 6.35558C20.9991 7.41038 21 9.10688 21 12.5008C21 15.8947 21 17.5921 19.9452 18.646C18.8904 19.6999 17.1939 19.7008 13.8 19.7008H10.2C6.8061 19.7008 5.1087 19.7008 4.0548 18.646C3.0009 17.5912 3 15.8947 3 12.5008Z" stroke="#FCBD4C" stroke-width="1.35"/>
<path id="Vector_2" d="M10.2 16.1031H6.6M13.8 16.1031H12.45M3 10.7031H21" stroke="#FCBD4C" stroke-width="1.35" stroke-linecap="round"/>
</g>
</g>
</svg>
