<svg width="24" height="24" viewBox="0 0 24 24" fill="none" xmlns="http://www.w3.org/2000/svg">
<path d="M8.8 10.6H14.4M8.8 16.2H14.4M8.8 13.4H11.6M6 18.58V5.42C6 5.30861 6.04425 5.20178 6.12302 5.12302C6.20178 5.04425 6.30861 5 6.42 5H14.5764C14.6878 5.0001 14.7945 5.04441 14.8732 5.1232L17.0768 7.3268C17.116 7.36593 17.147 7.41242 17.1682 7.4636C17.1893 7.51477 17.2001 7.56963 17.2 7.625V18.58C17.2 18.6352 17.1891 18.6898 17.168 18.7407C17.1469 18.7917 17.116 18.838 17.077 18.877C17.038 18.916 16.9917 18.9469 16.9407 18.968C16.8898 18.9891 16.8352 19 16.78 19H6.42C6.36484 19 6.31023 18.9891 6.25927 18.968C6.20832 18.9469 6.16202 18.916 6.12302 18.877C6.08401 18.838 6.05308 18.7917 6.03197 18.7407C6.01086 18.6898 6 18.6352 6 18.58Z" stroke="#2A295C" stroke-width="1.2" stroke-linecap="round" stroke-linejoin="round"/>
<path d="M14.4014 5V7.38C14.4014 7.49139 14.4456 7.59822 14.5244 7.67698C14.6031 7.75575 14.71 7.8 14.8214 7.8H17.2014" stroke="#2A295C" stroke-width="1.2" stroke-linecap="round" stroke-linejoin="round"/>
</svg>
