<svg width="24" height="24" viewBox="0 0 24 24" fill="none" xmlns="http://www.w3.org/2000/svg">
<path d="M11.2222 14.7222H15.8889V15.5H11.2222V14.7222ZM9.27778 8.5H8.5V9.27778H9.27778V8.5ZM11.2222 12.3889H15.8889V11.6111H11.2222V12.3889ZM11.2222 9.27778H15.8889V8.5H11.2222V9.27778ZM9.27778 11.6111H8.5V12.3889H9.27778V11.6111ZM19 6.55556V17.4444C19 18.3 18.3 19 17.4444 19H6.55556C5.7 19 5 18.3 5 17.4444V6.55556C5 5.7 5.7 5 6.55556 5H17.4444C18.3 5 19 5.7 19 6.55556ZM17.8333 6.16667H6.16667V17.8333H17.8333V6.16667ZM9.27778 14.7222H8.5V15.5H9.27778V14.7222Z" fill="#2A295C"/>
</svg>
