<svg width="24" height="24" viewBox="0 0 24 24" fill="none" xmlns="http://www.w3.org/2000/svg">
<path d="M13.937 6.33773C13.8322 6.39191 13.7403 6.46787 13.6674 6.56051C13.5945 6.65315 13.5422 6.76032 13.5142 6.87483L12.614 10.5439C12.567 10.7381 12.5917 10.9428 12.6835 11.1202C12.7754 11.2977 12.9282 11.436 13.1139 11.5098L14.3946 12.014C14.4595 12.0395 14.5124 12.0886 14.5427 12.1514L14.9062 12.901C14.9569 13.0041 15.0442 13.0846 15.1511 13.1267C15.258 13.1688 15.3767 13.1694 15.4841 13.1285L16.2609 12.8279C16.326 12.8027 16.3982 12.8029 16.4631 12.8285L17.7437 13.3328C17.9299 13.4054 18.136 13.4084 18.3241 13.3412C18.5122 13.274 18.6698 13.1411 18.7678 12.967L20.6107 9.66972C20.6682 9.56675 20.703 9.45266 20.7128 9.33512C20.7226 9.21757 20.7072 9.09929 20.6675 8.98821C20.6279 8.87712 20.5649 8.77581 20.4828 8.69106C20.4008 8.60632 20.3016 8.54011 20.1918 8.49687L14.6196 6.30278C14.5099 6.25957 14.3922 6.24033 14.2745 6.24636C14.1567 6.25239 14.0417 6.28354 13.937 6.33773ZM15.6732 11.6774C15.6179 11.6556 15.5702 11.6179 15.5363 11.5691C15.5024 11.5202 15.4838 11.4624 15.4827 11.4029C15.4817 11.3435 15.4983 11.2851 15.5305 11.235C15.5626 11.185 15.6089 11.1457 15.6634 11.122C15.7179 11.0982 15.7783 11.0912 15.8368 11.1018C15.8953 11.1124 15.9494 11.1401 15.9921 11.1814C16.0349 11.2227 16.0645 11.2757 16.0771 11.3338C16.0897 11.3919 16.0849 11.4525 16.0631 11.5078C16.0339 11.582 15.9764 11.6415 15.9032 11.6733C15.8301 11.7051 15.7474 11.7066 15.6732 11.6774ZM17.0765 8.19151C17.5346 8.36924 17.7988 8.7915 17.759 9.26704C17.7198 9.73594 17.3963 10.1013 16.9349 10.1978C16.7688 10.2326 16.5408 10.3266 16.3974 10.5772C16.3624 10.6382 16.3067 10.6846 16.2404 10.7079C16.1741 10.7313 16.1016 10.73 16.0362 10.7043C16.0229 10.6991 16.01 10.693 15.9976 10.6859C15.9302 10.6473 15.8808 10.5835 15.8605 10.5085C15.8401 10.4335 15.8503 10.3535 15.8889 10.2861C16.0851 9.9433 16.414 9.70825 16.8149 9.62439C17.0598 9.57313 17.1616 9.38096 17.1752 9.21821C17.1892 9.05041 17.1148 8.83622 16.8642 8.73752L16.863 8.73706C16.3877 8.55105 16.1919 8.89781 16.1298 9.05554C16.1151 9.09302 16.0927 9.12706 16.0642 9.15552C16.0357 9.18398 16.0016 9.20625 15.9641 9.22095C15.9266 9.23564 15.8865 9.24245 15.8462 9.24093C15.806 9.23942 15.7664 9.22962 15.7301 9.21215C15.5922 9.14607 15.5321 8.97086 15.5894 8.82907C15.8402 8.20839 16.4499 7.94624 17.0765 8.19151Z" fill="#2A295C"/>
<path d="M9.11312 7.46401C8.58575 7.46401 8.07999 7.6735 7.70708 8.04641C7.33418 8.41931 7.12468 8.92507 7.12468 9.45244C7.12468 9.97981 7.33418 10.4856 7.70708 10.8585C8.07999 11.2314 8.58575 11.4409 9.11312 11.4409C9.64048 11.4409 10.1462 11.2314 10.5192 10.8585C10.8921 10.4856 11.1016 9.97981 11.1016 9.45244C11.1016 8.92507 10.8921 8.41931 10.5192 8.04641C10.1462 7.6735 9.64048 7.46401 9.11312 7.46401ZM5.98843 9.45244C5.98843 8.62372 6.31764 7.82895 6.90363 7.24296C7.48962 6.65697 8.2844 6.32776 9.11312 6.32776C9.94183 6.32776 10.7366 6.65697 11.3226 7.24296C11.9086 7.82895 12.2378 8.62372 12.2378 9.45244C12.2378 10.2812 11.9086 11.0759 11.3226 11.6619C10.7366 12.2479 9.94183 12.5771 9.11312 12.5771C8.2844 12.5771 7.48962 12.2479 6.90363 11.6619C6.31764 11.0759 5.98843 10.2812 5.98843 9.45244ZM4 15.9859C4 15.2325 4.29928 14.51 4.832 13.9772C5.36472 13.4445 6.08724 13.1452 6.84062 13.1452H11.3856C12.139 13.1452 12.8615 13.4445 13.3942 13.9772C13.927 14.51 14.2262 15.2325 14.2262 15.9859V17.6902H4V15.9859ZM6.84062 14.2815C6.38859 14.2815 5.95508 14.4611 5.63545 14.7807C5.31582 15.1003 5.13625 15.5338 5.13625 15.9859V16.554H13.09V15.9859C13.09 15.5338 12.9104 15.1003 12.5908 14.7807C12.2712 14.4611 11.8376 14.2815 11.3856 14.2815H6.84062Z" fill="#2A295C"/>
</svg>
