<svg width="24" height="24" viewBox="0 0 24 24" fill="none" xmlns="http://www.w3.org/2000/svg">
<path d="M13.4865 5.4244C13.3549 5.49248 13.2394 5.58793 13.1478 5.70434C13.0561 5.82075 12.9905 5.95543 12.9552 6.09931L11.8241 10.7099C11.765 10.954 11.796 11.2111 11.9114 11.4341C12.0268 11.6571 12.2189 11.8309 12.4522 11.9236L14.0615 12.5572C14.1431 12.5893 14.2096 12.6509 14.2477 12.7298L14.7045 13.6718C14.7681 13.8014 14.8778 13.9025 15.0121 13.9554C15.1464 14.0083 15.2957 14.0091 15.4306 13.9577L16.4068 13.58C16.4885 13.5482 16.5792 13.5485 16.6608 13.5807L18.2701 14.2144C18.504 14.3057 18.7629 14.3094 18.9994 14.225C19.2358 14.1405 19.4338 13.9735 19.5569 13.7547L21.8727 9.61139C21.945 9.48199 21.9887 9.33863 22.0011 9.19092C22.0134 9.04321 21.994 8.89458 21.9441 8.75499C21.8943 8.6154 21.8152 8.48809 21.7121 8.3816C21.609 8.27511 21.4843 8.19191 21.3464 8.13757L14.3442 5.38048C14.2064 5.32618 14.0585 5.302 13.9106 5.30958C13.7626 5.31715 13.618 5.3563 13.4865 5.4244ZM15.6682 12.1342C15.5987 12.1069 15.5388 12.0595 15.4962 11.9981C15.4536 11.9367 15.4302 11.8641 15.4289 11.7894C15.4276 11.7146 15.4484 11.6412 15.4889 11.5784C15.5293 11.5155 15.5874 11.4661 15.6559 11.4363C15.7244 11.4065 15.8003 11.3977 15.8738 11.4109C15.9473 11.4242 16.0153 11.459 16.069 11.5109C16.1228 11.5628 16.1599 11.6295 16.1758 11.7025C16.1917 11.7755 16.1855 11.8516 16.1581 11.9211C16.1214 12.0144 16.0492 12.0892 15.9573 12.1291C15.8654 12.1691 15.7614 12.1709 15.6682 12.1342ZM17.4317 7.75386C18.0073 7.9772 18.3393 8.50781 18.2892 9.10538C18.24 9.69459 17.8335 10.1537 17.2537 10.275C17.045 10.3187 16.7584 10.4369 16.5782 10.7517C16.5343 10.8283 16.4643 10.8867 16.381 10.916C16.2977 10.9453 16.2066 10.9437 16.1243 10.9115C16.1076 10.9049 16.0915 10.8972 16.0759 10.8883C15.9911 10.8398 15.9291 10.7596 15.9035 10.6654C15.8779 10.5712 15.8908 10.4707 15.9393 10.3859C16.1858 9.95517 16.5991 9.65981 17.1029 9.55442C17.4106 9.49001 17.5385 9.24853 17.5557 9.04402C17.5733 8.83316 17.4798 8.56401 17.1648 8.43999L17.1633 8.4394C16.566 8.20566 16.3201 8.6414 16.242 8.8396C16.2235 8.8867 16.1954 8.92947 16.1596 8.96524C16.1238 9.001 16.0809 9.02899 16.0338 9.04746C15.9867 9.06593 15.9362 9.07448 15.8856 9.07257C15.8351 9.07067 15.7854 9.05835 15.7398 9.0364C15.5665 8.95337 15.491 8.7332 15.563 8.55502C15.878 7.77507 16.6442 7.44566 17.4317 7.75386Z" fill="#2A295C"/>
<path d="M7.42516 6.8398C6.76247 6.8398 6.12693 7.10305 5.65833 7.57165C5.18974 8.04024 4.92649 8.67579 4.92649 9.33847C4.92649 10.0012 5.18974 10.6367 5.65833 11.1053C6.12693 11.5739 6.76247 11.8371 7.42516 11.8371C8.08785 11.8371 8.7234 11.5739 9.19199 11.1053C9.66059 10.6367 9.92384 10.0012 9.92384 9.33847C9.92384 8.67579 9.66059 8.04024 9.19199 7.57165C8.7234 7.10305 8.08785 6.8398 7.42516 6.8398ZM3.49867 9.33847C3.49867 8.29711 3.91236 7.29839 4.64872 6.56203C5.38508 5.82567 6.38379 5.41199 7.42516 5.41199C8.46653 5.41199 9.46525 5.82567 10.2016 6.56203C10.938 7.29839 11.3517 8.29711 11.3517 9.33847C11.3517 10.3798 10.938 11.3786 10.2016 12.1149C9.46525 12.8513 8.46653 13.265 7.42516 13.265C6.38379 13.265 5.38508 12.8513 4.64872 12.1149C3.91236 11.3786 3.49867 10.3798 3.49867 9.33847ZM1 17.5484C1 16.6017 1.37607 15.6938 2.04549 15.0244C2.71491 14.3549 3.62284 13.9789 4.56954 13.9789H10.2808C11.2275 13.9789 12.1354 14.3549 12.8048 15.0244C13.4743 15.6938 13.8503 16.6017 13.8503 17.5484V19.6901H1V17.5484ZM4.56954 15.4067C4.00152 15.4067 3.45676 15.6323 3.05511 16.034C2.65346 16.4356 2.42781 16.9804 2.42781 17.5484V18.2623H12.4225V17.5484C12.4225 16.9804 12.1969 16.4356 11.7952 16.034C11.3936 15.6323 10.8488 15.4067 10.2808 15.4067H4.56954Z" fill="#2A295C"/>
</svg>
