<svg width="24" height="24" viewBox="0 0 24 24" fill="none" xmlns="http://www.w3.org/2000/svg">
<path d="M18.2618 15.9669H17.0757C16.9947 15.9669 16.9188 16.0023 16.8682 16.0647C16.7501 16.2081 16.6235 16.3465 16.4902 16.4781C15.9451 17.0238 15.2994 17.4587 14.5888 17.7587C13.8526 18.0696 13.0613 18.2291 12.2621 18.2277C11.4539 18.2277 10.6711 18.0691 9.93545 17.7587C9.22485 17.4587 8.57912 17.0238 8.03397 16.4781C7.48785 15.9342 7.05238 15.2896 6.7517 14.58C6.43956 13.8444 6.28265 13.0632 6.28265 12.255C6.28265 11.4468 6.44125 10.6657 6.7517 9.93004C7.05202 9.21973 7.48394 8.58028 8.03397 8.03194C8.584 7.48359 9.22345 7.05167 9.93545 6.75135C10.6711 6.4409 11.4539 6.2823 12.2621 6.2823C13.0703 6.2823 13.8531 6.43921 14.5888 6.75135C15.3008 7.05167 15.9402 7.48359 16.4902 8.03194C16.6235 8.16522 16.7484 8.30358 16.8682 8.4453C16.9188 8.50773 16.9964 8.54316 17.0757 8.54316H18.2618C18.3681 8.54316 18.4339 8.42505 18.3749 8.33563C17.0808 6.32448 14.8165 4.99328 12.2436 5.00003C8.201 5.01015 4.95988 8.29177 5.00038 12.3293C5.04087 16.3026 8.27693 19.51 12.2621 19.51C14.8284 19.51 17.0825 18.1805 18.3749 16.1744C18.4322 16.085 18.3681 15.9669 18.2618 15.9669ZM19.7617 12.1487L17.3676 10.259C17.2782 10.1882 17.1483 10.2523 17.1483 10.3653V11.6476H11.8504C11.7762 11.6476 11.7155 11.7084 11.7155 11.7826V12.7274C11.7155 12.8017 11.7762 12.8624 11.8504 12.8624H17.1483V14.1447C17.1483 14.2577 17.2799 14.3218 17.3676 14.251L19.7617 12.3613C19.7779 12.3487 19.7909 12.3325 19.7999 12.3141C19.8089 12.2957 19.8135 12.2755 19.8135 12.255C19.8135 12.2345 19.8089 12.2143 19.7999 12.1959C19.7909 12.1775 19.7779 12.1613 19.7617 12.1487Z" fill="#2A295C"/>
</svg>
