<svg width="24" height="24" viewBox="0 0 24 24" fill="none" xmlns="http://www.w3.org/2000/svg">
<path fill-rule="evenodd" clip-rule="evenodd" d="M19.746 9.79513H4.92623V19.9837H19.746V9.79513ZM4.92623 8.8689C4.68058 8.8689 4.44499 8.96648 4.27129 9.14018C4.09758 9.31389 4 9.54948 4 9.79513V19.9837C4 20.2293 4.09758 20.4649 4.27129 20.6386C4.44499 20.8123 4.68058 20.9099 4.92623 20.9099H19.746C19.9916 20.9099 20.2272 20.8123 20.4009 20.6386C20.5746 20.4649 20.6722 20.2293 20.6722 19.9837V9.79513C20.6722 9.54948 20.5746 9.31389 20.4009 9.14018C20.2272 8.96648 19.9916 8.8689 19.746 8.8689H4.92623Z" fill="black"/>
<path fill-rule="evenodd" clip-rule="evenodd" d="M8.6316 12.1108C8.6316 11.988 8.68039 11.8702 8.76724 11.7833C8.85409 11.6965 8.97189 11.6477 9.09471 11.6477H15.5783C15.7012 11.6477 15.819 11.6965 15.9058 11.7833C15.9927 11.8702 16.0415 11.988 16.0415 12.1108C16.0415 12.2336 15.9927 12.3514 15.9058 12.4383C15.819 12.5251 15.7012 12.5739 15.5783 12.5739H9.09471C8.97189 12.5739 8.85409 12.5251 8.76724 12.4383C8.68039 12.3514 8.6316 12.2336 8.6316 12.1108ZM7.70536 14.8895C7.70536 14.7667 7.75416 14.6489 7.84101 14.562C7.92786 14.4752 8.04565 14.4264 8.16848 14.4264H16.5046C16.6274 14.4264 16.7452 14.4752 16.832 14.562C16.9189 14.6489 16.9677 14.7667 16.9677 14.8895C16.9677 15.0123 16.9189 15.1301 16.832 15.217C16.7452 15.3038 16.6274 15.3526 16.5046 15.3526H8.16848C8.04565 15.3526 7.92786 15.3038 7.84101 15.217C7.75416 15.1301 7.70536 15.0123 7.70536 14.8895ZM8.6316 17.6682C8.6316 17.5454 8.68039 17.4276 8.76724 17.3407C8.85409 17.2539 8.97189 17.2051 9.09471 17.2051H15.5783C15.7012 17.2051 15.819 17.2539 15.9058 17.3407C15.9927 17.4276 16.0415 17.5454 16.0415 17.6682C16.0415 17.791 15.9927 17.9088 15.9058 17.9957C15.819 18.0825 15.7012 18.1313 15.5783 18.1313H9.09471C8.97189 18.1313 8.85409 18.0825 8.76724 17.9957C8.68039 17.9088 8.6316 17.791 8.6316 17.6682ZM13.9741 5.60401C13.7591 5.38892 13.5038 5.2183 13.2228 5.10189C12.9418 4.98549 12.6407 4.92557 12.3365 4.92557C12.0324 4.92557 11.7312 4.98549 11.4503 5.10189C11.1693 5.2183 10.914 5.38892 10.6989 5.60401L7.10702 9.19686C7.02006 9.28382 6.90211 9.33268 6.77913 9.33268C6.65615 9.33268 6.53821 9.28382 6.45124 9.19686C6.36428 9.1099 6.31543 8.99196 6.31543 8.86898C6.31543 8.80808 6.32742 8.74778 6.35073 8.69153C6.37403 8.63527 6.40819 8.58415 6.45124 8.54109L10.045 4.94916C10.653 4.34141 11.4774 4 12.337 4C13.1966 4 14.021 4.34141 14.629 4.94916L18.2218 8.54202C18.2648 8.58507 18.2989 8.63618 18.3221 8.69242C18.3454 8.74865 18.3573 8.80892 18.3573 8.86977C18.3573 8.93062 18.3452 8.99086 18.3219 9.04707C18.2986 9.10327 18.2644 9.15433 18.2213 9.19733C18.1783 9.24032 18.1272 9.27442 18.0709 9.29767C18.0147 9.32091 17.9544 9.33286 17.8936 9.33281C17.8327 9.33277 17.7725 9.32074 17.7163 9.29742C17.6601 9.27409 17.609 9.23992 17.566 9.19686L13.9741 5.60401Z" fill="black"/>
</svg>
