<svg width="24" height="24" viewBox="0 0 24 24" fill="none" xmlns="http://www.w3.org/2000/svg">
<path d="M4 9.71429V8.97143C4 7.93143 4 7.41143 4.20243 7.014C4.38071 6.66393 4.66393 6.38071 5.014 6.20243C5.41143 6 5.93143 6 6.97143 6H17.7429C18.7829 6 19.3029 6 19.6994 6.20243C20.0494 6.38071 20.3336 6.66393 20.5119 7.014C20.7143 7.4105 20.7143 7.9305 20.7143 8.96864V9.71429M4 9.71429H20.7143M4 9.71429V16.0286C4 17.0686 4 17.5886 4.20243 17.986C4.38048 18.3354 4.66457 18.6195 5.014 18.7976C5.4105 19 5.9305 19 6.96864 19H17.7456C18.7838 19 19.3029 19 19.6994 18.7976C20.0494 18.6193 20.3336 18.3351 20.5119 17.986C20.7143 17.5886 20.7143 17.0704 20.7143 16.0323V9.71429M6.78571 15.2857H10.5" stroke="#2A295C" stroke-width="1.2" stroke-linecap="round" stroke-linejoin="round"/>
</svg>
