<svg width="15" height="10" viewBox="0 0 15 10" fill="none" xmlns="http://www.w3.org/2000/svg">
<path d="M8.70636 0.587201C8.61956 0.632113 8.54338 0.695079 8.48294 0.771868C8.42249 0.848658 8.37917 0.937493 8.3559 1.03241L7.60978 4.07379C7.5708 4.23476 7.59125 4.4044 7.66738 4.55149C7.74351 4.69859 7.87019 4.81324 8.02412 4.87437L9.08567 5.29236C9.13948 5.3135 9.18334 5.35415 9.20851 5.40621L9.50982 6.02757C9.55179 6.11304 9.62416 6.17975 9.71276 6.21464C9.80136 6.24953 9.89979 6.25006 9.98877 6.21615L10.6327 5.96699C10.6867 5.94606 10.7465 5.94624 10.8003 5.96749L11.8619 6.38548C12.0161 6.44569 12.187 6.44816 12.3429 6.39245C12.4989 6.33674 12.6295 6.22659 12.7107 6.08227L14.2383 3.34913C14.286 3.26378 14.3148 3.16921 14.323 3.07177C14.3311 2.97434 14.3183 2.87629 14.2854 2.78421C14.2525 2.69214 14.2003 2.60816 14.1323 2.53791C14.0643 2.46767 13.9821 2.41278 13.8911 2.37694L9.27218 0.558231C9.18126 0.522413 9.08372 0.506467 8.98613 0.511464C8.88854 0.516461 8.79314 0.542285 8.70636 0.587201ZM10.1455 5.01332C10.0997 4.99526 10.0602 4.96401 10.0321 4.92351C10.004 4.88302 9.98854 4.8351 9.98767 4.78582C9.98681 4.73654 10.0006 4.68811 10.0272 4.64665C10.0539 4.60519 10.0922 4.57257 10.1374 4.55291C10.1826 4.53325 10.2326 4.52744 10.2812 4.5362C10.3297 4.54496 10.3745 4.56791 10.4099 4.60215C10.4454 4.63638 10.4699 4.68036 10.4804 4.72853C10.4908 4.77669 10.4868 4.82688 10.4687 4.87274C10.4445 4.93424 10.3969 4.9836 10.3362 5.00996C10.2756 5.03633 10.207 5.03753 10.1455 5.01332ZM11.3088 2.12382C11.6885 2.27115 11.9075 2.62116 11.8745 3.01535C11.842 3.40402 11.5739 3.70686 11.1914 3.78689C11.0537 3.81572 10.8647 3.89365 10.7458 4.10133C10.7169 4.15189 10.6707 4.19037 10.6157 4.20972C10.5608 4.22907 10.5007 4.22801 10.4464 4.20674C10.4354 4.20241 10.4247 4.19731 10.4144 4.19148C10.3586 4.15947 10.3177 4.10657 10.3008 4.04442C10.2839 3.98227 10.2924 3.91595 10.3244 3.86006C10.487 3.57591 10.7596 3.38107 11.092 3.31155C11.2949 3.26907 11.3793 3.10977 11.3906 2.97487C11.4022 2.83578 11.3405 2.65823 11.1328 2.57642L11.1318 2.57604C10.7378 2.42185 10.5755 2.70928 10.5241 2.84003C10.5118 2.8711 10.4933 2.89931 10.4697 2.9229C10.446 2.94649 10.4178 2.96496 10.3867 2.97714C10.3556 2.98932 10.3223 2.99496 10.289 2.99371C10.2556 2.99245 10.2228 2.98433 10.1928 2.96984C10.0784 2.91507 10.0286 2.76984 10.0761 2.65231C10.2839 2.13781 10.7894 1.92052 11.3088 2.12382Z" fill="black"/>
<path d="M4.70806 1.52071C4.27092 1.52071 3.85168 1.69436 3.54258 2.00347C3.23347 2.31257 3.05982 2.73181 3.05982 3.16895C3.05982 3.60609 3.23347 4.02532 3.54258 4.33443C3.85168 4.64353 4.27092 4.81719 4.70806 4.81719C5.1452 4.81719 5.56443 4.64353 5.87354 4.33443C6.18264 4.02532 6.3563 3.60609 6.3563 3.16895C6.3563 2.73181 6.18264 2.31257 5.87354 2.00347C5.56443 1.69436 5.1452 1.52071 4.70806 1.52071ZM2.11797 3.16895C2.11797 2.48201 2.39085 1.82321 2.87659 1.33748C3.36232 0.851741 4.02112 0.578857 4.70806 0.578857C5.39499 0.578857 6.05379 0.851741 6.53953 1.33748C7.02527 1.82321 7.29815 2.48201 7.29815 3.16895C7.29815 3.85588 7.02527 4.51468 6.53953 5.00042C6.05379 5.48616 5.39499 5.75904 4.70806 5.75904C4.02112 5.75904 3.36232 5.48616 2.87659 5.00042C2.39085 4.51468 2.11797 3.85588 2.11797 3.16895ZM0.469727 8.58459C0.469727 7.96011 0.717803 7.3612 1.15938 6.91962C1.60096 6.47804 2.19987 6.22996 2.82436 6.22996H6.59176C7.21625 6.22996 7.81516 6.47804 8.25674 6.91962C8.69831 7.3612 8.94639 7.96011 8.94639 8.58459V9.99737H0.469727V8.58459ZM2.82436 7.17182C2.44966 7.17182 2.09032 7.32066 1.82537 7.58561C1.56042 7.85055 1.41158 8.2099 1.41158 8.58459V9.05552H8.00454V8.58459C8.00454 8.2099 7.85569 7.85055 7.59075 7.58561C7.3258 7.32066 6.96645 7.17182 6.59176 7.17182H2.82436Z" fill="black"/>
</svg>
