<svg width="24" height="24" viewBox="0 0 24 24" fill="none" xmlns="http://www.w3.org/2000/svg">
<path d="M14.9999 10.9283H16.5714M14.9999 14.0712H16.5714M7.27637 14.8569C7.43833 14.3965 7.73923 13.9977 8.13752 13.7156C8.53582 13.4335 9.01186 13.282 9.49994 13.282C9.98802 13.282 10.4641 13.4335 10.8624 13.7156C11.2606 13.9977 11.5615 14.3965 11.7235 14.8569" stroke="black" stroke-linecap="round" stroke-linejoin="round"/>
<path d="M9.49819 13.2856C10.3661 13.2856 11.0696 12.582 11.0696 11.7141C11.0696 10.8463 10.3661 10.1427 9.49819 10.1427C8.63031 10.1427 7.92676 10.8463 7.92676 11.7141C7.92676 12.582 8.63031 13.2856 9.49819 13.2856Z" stroke="black" stroke-linecap="round" stroke-linejoin="round"/>
<path d="M18.1429 7H5.57143C4.70355 7 4 7.70355 4 8.57143V16.4286C4 17.2964 4.70355 18 5.57143 18H18.1429C19.0107 18 19.7143 17.2964 19.7143 16.4286V8.57143C19.7143 7.70355 19.0107 7 18.1429 7Z" stroke="black" stroke-linecap="round" stroke-linejoin="round"/>
</svg>
