<svg width="18" height="18" viewBox="0 0 18 18" fill="none" xmlns="http://www.w3.org/2000/svg">
<g clip-path="url(#clip0_5500_333220)">
<path d="M10.5 6H3.5C3.36739 6 3.24021 5.94732 3.14645 5.85355C3.05268 5.75979 3 5.63261 3 5.5V3.5C3 3.36739 3.05268 3.24021 3.14645 3.14645C3.24021 3.05268 3.36739 3 3.5 3H10.5C10.6326 3 10.7598 3.05268 10.8536 3.14645C10.9473 3.24021 11 3.36739 11 3.5V5.5C11 5.63261 10.9473 5.75979 10.8536 5.85355C10.7598 5.94732 10.6326 6 10.5 6ZM4 5H10V3.97H4V5Z" fill="#2A295C"/>
<path d="M10.5 7.04001H3.5C3.36739 7.04001 3.24021 7.09269 3.14645 7.18646C3.05268 7.28022 3 7.4074 3 7.54001V9.50001C3 9.63262 3.05268 9.75979 3.14645 9.85356C3.24021 9.94733 3.36739 10 3.5 10H9.18L11 8.15001V7.54001C11 7.4074 10.9473 7.28022 10.8536 7.18646C10.7598 7.09269 10.6326 7.04001 10.5 7.04001ZM10 9.00001H4V8.00001H10V9.00001Z" fill="#2A295C"/>
<path d="M5.53 15.755V15.725L5.69 15.03H2V2H12V7.125L13 6.18V1.5C13 1.36739 12.9473 1.24021 12.8536 1.14645C12.7598 1.05268 12.6326 1 12.5 1H1.5C1.36739 1 1.24021 1.05268 1.14645 1.14645C1.05268 1.24021 1 1.36739 1 1.5V15.5C1 15.6326 1.05268 15.7598 1.14645 15.8536C1.24021 15.9473 1.36739 16 1.5 16H5.5C5.50405 15.9177 5.51408 15.8358 5.53 15.755Z" fill="#2A295C"/>
<path d="M10.9999 9.58499L10.6099 9.97999C10.7066 9.96004 10.7953 9.91188 10.8647 9.84158C10.9341 9.77128 10.9812 9.682 10.9999 9.58499Z" fill="black"/>
<path d="M3 13.47C3 13.6026 3.05268 13.7298 3.14645 13.8236C3.24021 13.9173 3.36739 13.97 3.5 13.97H5.92L6.07 13.32L6.135 13.045V13.02H4V12H7.17L8.17 11H3.5C3.36739 11 3.24021 11.0527 3.14645 11.1464C3.05268 11.2402 3 11.3674 3 11.5V13.47Z" fill="#2A295C"/>
<path d="M16.7451 8.33501L15.0601 6.65001C14.9853 6.57503 14.8965 6.51553 14.7987 6.47494C14.7009 6.43435 14.596 6.41345 14.4901 6.41345C14.3842 6.41345 14.2794 6.43435 14.1815 6.47494C14.0837 6.51553 13.9949 6.57503 13.9201 6.65001L7.06511 13.545L6.50011 15.95C6.47896 16.0538 6.47848 16.1607 6.49871 16.2646C6.51894 16.3686 6.55948 16.4675 6.618 16.5557C6.67652 16.644 6.75188 16.7198 6.83976 16.7789C6.92763 16.838 7.0263 16.8791 7.13011 16.9C7.18166 16.905 7.23357 16.905 7.28511 16.9C7.34641 16.9096 7.40882 16.9096 7.47011 16.9L9.89511 16.365L16.7451 9.50001C16.8199 9.42566 16.8793 9.33724 16.9199 9.23985C16.9604 9.14245 16.9812 9.038 16.9812 8.93251C16.9812 8.82702 16.9604 8.72257 16.9199 8.62518C16.8793 8.52778 16.8199 8.43936 16.7451 8.36501V8.33501ZM9.38511 15.455L7.55511 15.86L8.00011 14.045L13.1401 8.85001L14.5501 10.26L9.38511 15.455ZM15.1151 9.69501L13.7051 8.28501L14.5001 7.50001L15.9201 8.92001L15.1151 9.69501Z" fill="#2A295C"/>
</g>
<defs>
<clipPath id="clip0_5500_333220">
<rect width="18" height="18" fill="white"/>
</clipPath>
</defs>
</svg>
