<svg width="17" height="17" viewBox="0 0 17 17" fill="none" xmlns="http://www.w3.org/2000/svg">
<path d="M4.34413 14.875C3.50971 14.875 2.83325 14.1808 2.83325 13.3237V7.08895C2.83325 6.61791 3.04221 6.17166 3.39992 5.8777L7.55571 2.46495C7.82123 2.24507 8.15517 2.12476 8.49992 2.12476C8.84466 2.12476 9.1786 2.24507 9.44413 2.46495L13.5992 5.8777C13.9576 6.17166 14.1666 6.61791 14.1666 7.08895V13.3237C14.1666 14.1808 13.4901 14.875 12.6557 14.875H4.34413Z" stroke="#2A295C" stroke-width="1.5" stroke-linecap="round" stroke-linejoin="round"/>
<path d="M6.729 14.875V10.9792C6.729 10.6034 6.87826 10.2431 7.14394 9.97743C7.40961 9.71176 7.76995 9.5625 8.14567 9.5625H8.854C9.22973 9.5625 9.59006 9.71176 9.85574 9.97743C10.1214 10.2431 10.2707 10.6034 10.2707 10.9792V14.875" stroke="#2A295C" stroke-width="1.5" stroke-linecap="round" stroke-linejoin="round"/>
</svg>
