<svg width="23" height="24" viewBox="0 0 23 24" fill="none" xmlns="http://www.w3.org/2000/svg">
<path d="M19.9007 15.8085L18.5759 14.6759C18.6386 14.2917 18.671 13.8993 18.671 13.507C18.671 13.1146 18.6386 12.7222 18.5759 12.338L19.9007 11.2054C20.0006 11.1199 20.0721 11.0059 20.1057 10.8788C20.1393 10.7516 20.1334 10.6172 20.0888 10.4935L20.0705 10.4409C19.7059 9.42163 19.1598 8.47675 18.4586 7.65193L18.4222 7.60945C18.3372 7.50945 18.2238 7.43756 18.0971 7.40326C17.9704 7.36896 17.8362 7.37386 17.7124 7.41732L16.0681 8.00181C15.4614 7.50429 14.7838 7.11193 14.0517 6.83687L13.7342 5.11778C13.7102 4.98843 13.6475 4.86943 13.5543 4.77659C13.4611 4.68375 13.3418 4.62146 13.2124 4.59801L13.1578 4.5879C12.1041 4.39778 10.9958 4.39778 9.94206 4.5879L9.88746 4.59801C9.75801 4.62146 9.63877 4.68375 9.54557 4.77659C9.45236 4.86943 9.38962 4.98843 9.36566 5.11778L9.04611 6.84496C8.31983 7.12009 7.64348 7.51224 7.04388 8.00586L5.38748 7.41732C5.26364 7.37352 5.12939 7.36844 5.00259 7.40276C4.8758 7.43708 4.76244 7.50917 4.6776 7.60945L4.64119 7.65193C3.9409 8.47734 3.39489 9.42206 3.02929 10.4409L3.01109 10.4935C2.92008 10.7463 2.99491 11.0294 3.19918 11.2054L4.54007 12.3501C4.47737 12.7303 4.44703 13.1186 4.44703 13.5049C4.44703 13.8932 4.47737 14.2816 4.54007 14.6598L3.19918 15.8045C3.09926 15.89 3.02775 16.0039 2.99415 16.1311C2.96055 16.2583 2.96646 16.3927 3.01109 16.5164L3.02929 16.569C3.39535 17.5883 3.93737 18.5287 4.64119 19.3579L4.6776 19.4004C4.76265 19.5004 4.87601 19.5723 5.00273 19.6066C5.12945 19.6409 5.2636 19.636 5.38748 19.5925L7.04388 19.004C7.64657 19.4995 8.32005 19.8919 9.04611 20.1649L9.36566 21.8921C9.38962 22.0214 9.45236 22.1404 9.54557 22.2333C9.63877 22.3261 9.75801 22.3884 9.88746 22.4119L9.94206 22.422C11.0054 22.6131 12.0944 22.6131 13.1578 22.422L13.2124 22.4119C13.3418 22.3884 13.4611 22.3261 13.5543 22.2333C13.6475 22.1404 13.7102 22.0214 13.7342 21.8921L14.0517 20.173C14.7835 19.8987 15.4649 19.505 16.0681 19.0081L17.7124 19.5925C17.8362 19.6363 17.9704 19.6414 18.0972 19.6071C18.224 19.5728 18.3374 19.5007 18.4222 19.4004L18.4586 19.3579C19.1625 18.5267 19.7045 17.5883 20.0705 16.569L20.0888 16.5164C20.1798 16.2676 20.1049 15.9845 19.9007 15.8085ZM17.14 12.5766C17.1906 12.882 17.2169 13.1955 17.2169 13.509C17.2169 13.8225 17.1906 14.1359 17.14 14.4413L17.0065 15.2523L18.5173 16.5447C18.2883 17.0723 17.9992 17.5718 17.6557 18.0332L15.7789 17.3678L15.1438 17.8896C14.6605 18.286 14.1225 18.5975 13.54 18.8159L12.7695 19.1051L12.4074 21.0669C11.8362 21.1316 11.2596 21.1316 10.6884 21.0669L10.3263 19.1011L9.56184 18.8078C8.98544 18.5894 8.44949 18.2779 7.97016 17.8836L7.33511 17.3597L5.44613 18.0312C5.10231 17.5681 4.81512 17.0685 4.58456 16.5427L6.11152 15.2382L5.98006 14.4292C5.93152 14.1278 5.90523 13.8164 5.90523 13.509C5.90523 13.1995 5.9295 12.8901 5.98006 12.5888L6.11152 11.7798L4.58456 10.4753C4.8131 9.94742 5.10231 9.44989 5.44613 8.98675L7.33511 9.65821L7.97016 9.13439C8.44949 8.74001 8.98544 8.42855 9.56184 8.21013L10.3284 7.92091L10.6904 5.95508C11.2587 5.89036 11.8391 5.89036 12.4095 5.95508L12.7715 7.91687L13.542 8.20608C14.1225 8.42451 14.6625 8.73597 15.1459 9.13237L15.7809 9.65416L17.6578 8.98877C18.0016 9.45192 18.2888 9.95147 18.5193 10.4773L17.0085 11.7697L17.14 12.5766ZM11.5519 9.7472C9.58611 9.7472 7.99241 11.3409 7.99241 13.3067C7.99241 15.2726 9.58611 16.8663 11.5519 16.8663C13.5178 16.8663 15.1115 15.2726 15.1115 13.3067C15.1115 11.3409 13.5178 9.7472 11.5519 9.7472ZM13.1537 14.9085C12.9436 15.1192 12.694 15.2863 12.4191 15.4001C12.1442 15.514 11.8495 15.5724 11.5519 15.5719C10.9472 15.5719 10.3789 15.3353 9.95015 14.9085C9.73946 14.6984 9.57238 14.4488 9.45854 14.1739C9.34469 13.899 9.28632 13.6043 9.28678 13.3067C9.28678 12.702 9.52341 12.1337 9.95015 11.7049C10.3789 11.2762 10.9472 11.0416 11.5519 11.0416C12.1567 11.0416 12.725 11.2762 13.1537 11.7049C13.3644 11.915 13.5315 12.1647 13.6453 12.4396C13.7592 12.7145 13.8176 13.0092 13.8171 13.3067C13.8171 13.9114 13.5805 14.4798 13.1537 14.9085Z" fill="#2A295C"/>
</svg>
