<svg width="22" height="23" viewBox="0 0 22 23" fill="none" xmlns="http://www.w3.org/2000/svg">
<path d="M14.0149 18.1835V15.1237C14.0149 14.7179 13.8537 14.3288 13.5668 14.0419C13.2799 13.7549 12.8908 13.5937 12.485 13.5938C12.0792 13.5937 11.6901 13.7549 11.4032 14.0419C11.1163 14.3288 10.9551 14.7179 10.9551 15.1237V18.1835" stroke="#2A295C" stroke-width="1.1" stroke-linecap="round" stroke-linejoin="round"/>
<path d="M17.0733 9.00158L19.7101 10.3204C19.8372 10.3839 19.944 10.4814 20.0187 10.6022C20.0934 10.723 20.1331 10.8622 20.1331 11.0042V16.6512C20.1331 17.0569 19.9719 17.4461 19.685 17.733C19.3981 18.0199 19.009 18.1811 18.6032 18.1811H6.3639C5.95814 18.1811 5.569 18.0199 5.28209 17.733C4.99517 17.4461 4.83398 17.0569 4.83398 16.6512V11.0042C4.83406 10.8622 4.87367 10.723 4.94839 10.6022C5.0231 10.4814 5.12996 10.3839 5.25701 10.3204L7.89381 9.00158M17.0733 5.17679V18.1811M6.3639 5.94175L11.7997 3.22385C12.012 3.11774 12.2462 3.0625 12.4836 3.0625C12.7209 3.0625 12.9551 3.11774 13.1674 3.22385L18.6032 5.94175M7.89381 5.17679V18.1811" stroke="#2A295C" stroke-width="1.1" stroke-linecap="round" stroke-linejoin="round"/>
<path d="M12.485 9.76296C13.3299 9.76296 14.0149 9.07799 14.0149 8.23304C14.0149 7.38809 13.3299 6.70312 12.485 6.70312C11.64 6.70312 10.9551 7.38809 10.9551 8.23304C10.9551 9.07799 11.64 9.76296 12.485 9.76296Z" stroke="#2A295C" stroke-width="1.1" stroke-linecap="round" stroke-linejoin="round"/>
</svg>
