<svg width="24" height="24" viewBox="0 0 24 24" fill="none" xmlns="http://www.w3.org/2000/svg">
<g id="mingcute:down-line">
<g id="Group">
<path id="Vector" fill-rule="evenodd" clip-rule="evenodd" d="M12.5502 14.935C12.4035 15.0817 12.2046 15.1641 11.9971 15.1641C11.7896 15.1641 11.5907 15.0817 11.444 14.935L7.01814 10.5092C6.94342 10.437 6.88382 10.3507 6.84281 10.2552C6.80181 10.1598 6.78023 10.0571 6.77933 9.95322C6.77842 9.84934 6.79822 9.74632 6.83756 9.65017C6.87689 9.55402 6.93499 9.46667 7.00845 9.39321C7.0819 9.31975 7.16926 9.26166 7.26541 9.22232C7.36156 9.18298 7.46458 9.16319 7.56846 9.16409C7.67234 9.16499 7.775 9.18658 7.87045 9.22758C7.9659 9.26858 8.05223 9.32818 8.1244 9.40291L11.9971 13.2756L15.8698 9.40291C16.0174 9.26039 16.215 9.18154 16.4201 9.18332C16.6252 9.1851 16.8215 9.26738 16.9665 9.41244C17.1116 9.5575 17.1939 9.75372 17.1956 9.95885C17.1974 10.164 17.1186 10.3616 16.9761 10.5092L12.5502 14.935Z" fill="#283897"/>
</g>
</g>
</svg>
