<svg width="19" height="19" viewBox="0 0 19 19" fill="none" xmlns="http://www.w3.org/2000/svg">
<g clip-path="url(#clip0_5153_78383)">
<path fill-rule="evenodd" clip-rule="evenodd" d="M2.85922 1.69922H2.79922C2.52442 1.69922 2.28802 1.69922 2.07922 1.74842C1.75598 1.82566 1.46044 1.99087 1.22534 2.22577C0.990232 2.46066 0.824748 2.75605 0.747219 3.07922C0.699219 3.28802 0.699219 3.52322 0.699219 3.79922V6.79922C0.699219 7.07402 0.699219 7.31042 0.748419 7.51922C0.825657 7.84245 0.990874 8.138 1.22577 8.3731C1.46066 8.6082 1.75605 8.77369 2.07922 8.85122C2.28802 8.89922 2.52322 8.89922 2.79922 8.89922H5.79922C6.07402 8.89922 6.31042 8.89922 6.51922 8.85002C6.84246 8.77278 7.138 8.60756 7.3731 8.37267C7.60821 8.13778 7.77369 7.84239 7.85122 7.51922C7.89922 7.31042 7.89922 7.07522 7.89922 6.79922V3.79922C7.89922 3.52442 7.89922 3.28802 7.85002 3.07922C7.77278 2.75598 7.60756 2.46044 7.37267 2.22534C7.13778 1.99023 6.84239 1.82475 6.51922 1.74722C6.31042 1.69922 6.07522 1.69922 5.79922 1.69922H2.85922ZM2.35882 2.91602C2.41042 2.90402 2.49082 2.89922 2.85922 2.89922H5.73922C6.10882 2.89922 6.18802 2.90282 6.23962 2.91602C6.34742 2.9418 6.44596 2.99693 6.52434 3.0753C6.60271 3.15367 6.65784 3.25222 6.68362 3.36002C6.69562 3.41042 6.69922 3.48962 6.69922 3.85922V6.73922C6.69922 7.10882 6.69562 7.18802 6.68242 7.23962C6.65664 7.34741 6.60151 7.44596 6.52314 7.52434C6.44476 7.60271 6.34622 7.65784 6.23842 7.68362C6.18922 7.69442 6.11002 7.69922 5.73922 7.69922H2.85922C2.48962 7.69922 2.41042 7.69562 2.35882 7.68242C2.25102 7.65664 2.15247 7.60151 2.0741 7.52314C1.99573 7.44476 1.9406 7.34621 1.91482 7.23842C1.90402 7.18922 1.89922 7.11002 1.89922 6.73922V3.85922C1.89922 3.48962 1.90282 3.41042 1.91602 3.35882C1.9418 3.25102 1.99693 3.15247 2.0753 3.0741C2.15367 2.99573 2.25222 2.9406 2.36002 2.91482M11.2592 1.69922H11.1992C10.9244 1.69922 10.688 1.69922 10.4792 1.74842C10.156 1.82566 9.86044 1.99087 9.62534 2.22577C9.39023 2.46066 9.22475 2.75605 9.14722 3.07922C9.09922 3.28802 9.09922 3.52322 9.09922 3.79922V6.79922C9.09922 7.07402 9.09922 7.31042 9.14842 7.51922C9.22566 7.84245 9.39087 8.138 9.62577 8.3731C9.86066 8.6082 10.1561 8.77369 10.4792 8.85122C10.688 8.89922 10.9232 8.89922 11.1992 8.89922H14.1992C14.474 8.89922 14.7104 8.89922 14.9192 8.85002C15.2425 8.77278 15.538 8.60756 15.7731 8.37267C16.0082 8.13778 16.1737 7.84239 16.2512 7.51922C16.2992 7.31042 16.2992 7.07522 16.2992 6.79922V3.79922C16.2992 3.52442 16.2992 3.28802 16.25 3.07922C16.1728 2.75598 16.0076 2.46044 15.7727 2.22534C15.5378 1.99023 15.2424 1.82475 14.9192 1.74722C14.7104 1.69922 14.4752 1.69922 14.1992 1.69922H11.2592ZM10.7588 2.91602C10.8104 2.90402 10.8908 2.89922 11.2592 2.89922H14.1392C14.5088 2.89922 14.588 2.90282 14.6396 2.91602C14.7474 2.9418 14.846 2.99693 14.9243 3.0753C15.0027 3.15367 15.0578 3.25222 15.0836 3.36002C15.0956 3.41042 15.0992 3.48962 15.0992 3.85922V6.73922C15.0992 7.10882 15.0944 7.18802 15.0824 7.23962C15.0566 7.34741 15.0015 7.44596 14.9231 7.52434C14.8448 7.60271 14.7462 7.65784 14.6384 7.68362C14.588 7.69562 14.5088 7.69922 14.1392 7.69922H11.2592C10.8896 7.69922 10.8104 7.69562 10.7588 7.68242C10.651 7.65664 10.5525 7.60151 10.4741 7.52314C10.3957 7.44476 10.3406 7.34621 10.3148 7.23842C10.304 7.18922 10.2992 7.11002 10.2992 6.73922V3.85922C10.2992 3.48962 10.3028 3.41042 10.316 3.35882C10.3418 3.25102 10.3969 3.15247 10.4753 3.0741C10.5537 2.99573 10.6522 2.9406 10.76 2.91482M2.79922 10.0992H5.79922C6.07402 10.0992 6.31042 10.0992 6.51922 10.1484C6.84246 10.2257 7.138 10.3909 7.3731 10.6258C7.60821 10.8607 7.77369 11.1561 7.85122 11.4792C7.89922 11.688 7.89922 11.9232 7.89922 12.1992V15.1992C7.89922 15.474 7.89922 15.7104 7.85002 15.9192C7.77278 16.2425 7.60756 16.538 7.37267 16.7731C7.13778 17.0082 6.84239 17.1737 6.51922 17.2512C6.31042 17.2992 6.07522 17.2992 5.79922 17.2992H2.79922C2.52442 17.2992 2.28802 17.2992 2.07922 17.25C1.75598 17.1728 1.46044 17.0076 1.22534 16.7727C0.990232 16.5378 0.824748 16.2424 0.747219 15.9192C0.699219 15.7104 0.699219 15.4752 0.699219 15.1992V12.1992C0.699219 11.9244 0.699219 11.688 0.748419 11.4792C0.825657 11.156 0.990874 10.8604 1.22577 10.6253C1.46066 10.3902 1.75605 10.2247 2.07922 10.1472C2.28802 10.0992 2.52322 10.0992 2.79922 10.0992ZM2.85922 11.2992C2.48962 11.2992 2.41042 11.3028 2.35882 11.316C2.25102 11.3418 2.15247 11.3969 2.0741 11.4753C1.99573 11.5537 1.9406 11.6522 1.91482 11.76C1.90402 11.8092 1.89922 11.8884 1.89922 12.2592V15.1392C1.89922 15.5088 1.90282 15.588 1.91602 15.6396C1.9418 15.7474 1.99693 15.846 2.0753 15.9243C2.15367 16.0027 2.25222 16.0578 2.36002 16.0836C2.41042 16.0956 2.48962 16.0992 2.85922 16.0992H5.73922C6.10882 16.0992 6.18802 16.0944 6.23962 16.0824C6.34742 16.0566 6.44596 16.0015 6.52434 15.9231C6.60271 15.8448 6.65784 15.7462 6.68362 15.6384C6.69562 15.588 6.69922 15.5088 6.69922 15.1392V12.2592C6.69922 11.8896 6.69562 11.8104 6.68242 11.7588C6.65664 11.651 6.60151 11.5525 6.52314 11.4741C6.44476 11.3957 6.34622 11.3406 6.23842 11.3148C6.18922 11.304 6.11002 11.2992 5.73922 11.2992H2.85922ZM11.2592 10.0992H11.1992C10.9244 10.0992 10.688 10.0992 10.4792 10.1484C10.156 10.2257 9.86044 10.3909 9.62534 10.6258C9.39023 10.8607 9.22475 11.1561 9.14722 11.4792C9.09922 11.688 9.09922 11.9232 9.09922 12.1992V15.1992C9.09922 15.474 9.09922 15.7104 9.14842 15.9192C9.22566 16.2425 9.39087 16.538 9.62577 16.7731C9.86066 17.0082 10.1561 17.1737 10.4792 17.2512C10.688 17.3004 10.9244 17.3004 11.1992 17.3004H14.1992C14.474 17.3004 14.7104 17.3004 14.9192 17.2512C15.2422 17.1738 15.5375 17.0085 15.7724 16.7736C16.0073 16.5387 16.1726 16.2434 16.25 15.9204C16.2992 15.7116 16.2992 15.4752 16.2992 15.2004V12.2004C16.2992 11.9256 16.2992 11.6892 16.25 11.4804C16.173 11.157 16.0078 10.8612 15.7729 10.6258C15.538 10.3905 15.2425 10.2248 14.9192 10.1472C14.7104 10.0992 14.4752 10.0992 14.1992 10.0992H11.2592ZM10.7588 11.316C10.8104 11.304 10.8908 11.2992 11.2592 11.2992H14.1392C14.5088 11.2992 14.588 11.3028 14.6396 11.316C14.7474 11.3418 14.846 11.3969 14.9243 11.4753C15.0027 11.5537 15.0578 11.6522 15.0836 11.76C15.0956 11.8104 15.0992 11.8896 15.0992 12.2592V15.1392C15.0992 15.5088 15.0944 15.588 15.0824 15.6396C15.0566 15.7474 15.0015 15.846 14.9231 15.9243C14.8448 16.0027 14.7462 16.0578 14.6384 16.0836C14.588 16.0956 14.5088 16.0992 14.1392 16.0992H11.2592C10.8896 16.0992 10.8104 16.0944 10.7588 16.0824C10.651 16.0566 10.5525 16.0015 10.4741 15.9231C10.3957 15.8448 10.3406 15.7462 10.3148 15.6384C10.304 15.5892 10.2992 15.51 10.2992 15.1392V12.2592C10.2992 11.8896 10.3028 11.8104 10.316 11.7588C10.3418 11.651 10.3969 11.5525 10.4753 11.4741C10.5537 11.3957 10.6522 11.3406 10.76 11.3148" fill="#2A295C"/>
</g>
<defs>
<clipPath id="clip0_5153_78383">
<rect width="18" height="18" fill="white" transform="translate(0.5 0.5)"/>
</clipPath>
</defs>
</svg>
