<svg width="22" height="22" viewBox="0 0 22 22" fill="none" xmlns="http://www.w3.org/2000/svg">
<path d="M13 13.75C13 14.4793 13.2897 15.1788 13.8055 15.6945C14.3212 16.2103 15.0207 16.5 15.75 16.5C16.4793 16.5 17.1788 16.2103 17.6945 15.6945C18.2103 15.1788 18.5 14.4793 18.5 13.75C18.5 13.0207 18.2103 12.3212 17.6945 11.8055C17.1788 11.2897 16.4793 11 15.75 11C15.0207 11 14.3212 11.2897 13.8055 11.8055C13.2897 12.3212 13 13.0207 13 13.75Z" stroke="#2A295C" stroke-width="1.1" stroke-linecap="round" stroke-linejoin="round"/>
<path d="M13.917 16.0391V20.1641L15.7503 18.7891L17.5837 20.1641V16.0391" stroke="#2A295C" stroke-width="1.1" stroke-linecap="round" stroke-linejoin="round"/>
<path d="M11.1667 17.4154H6.58333C6.0971 17.4154 5.63079 17.2222 5.28697 16.8784C4.94315 16.5346 4.75 16.0683 4.75 15.582V6.41536C4.75 5.40703 5.575 4.58203 6.58333 4.58203H19.4167C19.9029 4.58203 20.3692 4.77519 20.713 5.119C21.0568 5.46282 21.25 5.92913 21.25 6.41536V15.582C21.2497 15.9035 21.1648 16.2193 21.0039 16.4976C20.843 16.776 20.6118 17.0071 20.3333 17.1679M7.5 8.2487H18.5M7.5 10.9987H10.25M7.5 13.7487H9.33333" stroke="#2A295C" stroke-width="1.1" stroke-linecap="round" stroke-linejoin="round"/>
</svg>
