<svg width="24" height="25" viewBox="0 0 24 25" fill="none" xmlns="http://www.w3.org/2000/svg">
<g id="icon-park-outline:sport">
<g id="Group">
<path id="Vector" d="M18 8C18.663 8 19.2989 7.73661 19.7678 7.26777C20.2366 6.79893 20.5 6.16304 20.5 5.5C20.5 4.83696 20.2366 4.20107 19.7678 3.73223C19.2989 3.26339 18.663 3 18 3C17.337 3 16.7011 3.26339 16.2322 3.73223C15.7634 4.20107 15.5 4.83696 15.5 5.5C15.5 6.16304 15.7634 6.79893 16.2322 7.26777C16.7011 7.73661 17.337 8 18 8Z" stroke="#199CDA" stroke-width="1.2"/>
<path id="Vector_2" d="M5.998 9.386L9.9995 8L15.498 10.6245L9.9995 14.723L15.498 18.343L12.002 23M17.658 11.8225L18.999 12.552L21.998 9.734M8.4225 16.7735L6.9375 18.7295L2 21.4995" stroke="#199CDA" stroke-width="1.2" stroke-linecap="round" stroke-linejoin="round"/>
</g>
</g>
</svg>
