<svg width="24" height="25" viewBox="0 0 24 25" fill="none" xmlns="http://www.w3.org/2000/svg">
<g id="material-symbols-light:wall-art-outline-rounded">
<path id="Vector" d="M4.616 21.499C4.15533 21.499 3.771 21.345 3.463 21.037C3.155 20.729 3.00067 20.3447 3 19.884V9.11403C3 8.65403 3.15433 8.27003 3.463 7.96203C3.77167 7.65403 4.15567 7.4997 4.615 7.49903H8.885L11.435 4.94903C11.5963 4.7877 11.7847 4.70703 12 4.70703C12.2153 4.70703 12.404 4.7877 12.566 4.94903L15.116 7.49903H19.385C19.845 7.49903 20.2293 7.65336 20.538 7.96203C20.8467 8.2707 21.0007 8.65503 21 9.11503V19.884C21 20.344 20.846 20.7284 20.538 21.037C20.23 21.3457 19.8457 21.4997 19.385 21.499H4.616ZM4.616 20.499H19.385C19.5383 20.499 19.6793 20.435 19.808 20.307C19.9367 20.179 20.0007 20.0377 20 19.883V9.11503C20 8.96103 19.936 8.8197 19.808 8.69103C19.68 8.56236 19.539 8.49836 19.385 8.49903H4.615C4.46167 8.49903 4.32067 8.56303 4.192 8.69103C4.06333 8.81903 3.99933 8.96036 4 9.11503V19.884C4 20.0374 4.064 20.1784 4.192 20.307C4.32 20.4357 4.461 20.4997 4.615 20.499M11.212 17.538L9.785 15.813C9.69767 15.7177 9.593 15.67 9.471 15.67C9.34967 15.67 9.24533 15.724 9.158 15.832L8.004 17.352C7.896 17.494 7.87933 17.6374 7.954 17.782C8.02867 17.9267 8.14667 17.999 8.308 17.999H15.846C16.008 17.999 16.126 17.9267 16.2 17.782C16.274 17.6374 16.264 17.494 16.17 17.352L14.15 14.639C14.0633 14.5317 13.9557 14.478 13.827 14.478C13.699 14.478 13.5913 14.532 13.504 14.64L11.212 17.538ZM16.923 13.499C17.237 13.499 17.5013 13.3917 17.716 13.177C17.9307 12.9624 18.038 12.698 18.038 12.384C18.038 12.07 17.9307 11.8054 17.716 11.59C17.5013 11.3747 17.237 11.2674 16.923 11.268C16.609 11.2687 16.3447 11.376 16.13 11.59C15.9153 11.804 15.808 12.0684 15.808 12.383C15.808 12.6977 15.9153 12.9624 16.13 13.177C16.3447 13.3917 16.609 13.499 16.923 13.499ZM10.139 7.49903H13.862L12 5.63803L10.139 7.49903Z" fill="#FCBD4C"/>
</g>
</svg>
