<svg width="22" height="23" viewBox="0 0 22 23" fill="none" xmlns="http://www.w3.org/2000/svg">
<g id="ph:chalkboard-teacher-light">
<path id="Vector" d="M18.5625 4.10938H3.4375C3.11841 4.10938 2.81239 4.23613 2.58676 4.46176C2.36113 4.68739 2.23438 4.99341 2.23438 5.3125V17.6875C2.23438 18.0066 2.36113 18.3126 2.58676 18.5382C2.81239 18.7639 3.11841 18.8906 3.4375 18.8906H4.5882C4.68578 18.8906 4.78134 18.8629 4.86379 18.8107C4.94624 18.7585 5.01219 18.684 5.05398 18.5959C5.40218 17.8605 5.952 17.2391 6.63949 16.804C7.32697 16.3689 8.12388 16.1379 8.9375 16.1379C9.75112 16.1379 10.548 16.3689 11.2355 16.804C11.923 17.2391 12.4728 17.8605 12.821 18.5959C12.8628 18.684 12.9288 18.7585 13.0112 18.8107C13.0937 18.8629 13.1892 18.8906 13.2868 18.8906H18.5625C18.8816 18.8906 19.1876 18.7639 19.4132 18.5382C19.6389 18.3126 19.7656 18.0066 19.7656 17.6875V5.3125C19.7656 4.99341 19.6389 4.68739 19.4132 4.46176C19.1876 4.23613 18.8816 4.10938 18.5625 4.10938ZM6.70312 12.875C6.70312 12.4331 6.83417 12.0011 7.07969 11.6336C7.3252 11.2662 7.67416 10.9798 8.08244 10.8107C8.49072 10.6416 8.93998 10.5973 9.3734 10.6836C9.80683 10.7698 10.205 10.9826 10.5174 11.2951C10.8299 11.6075 11.0427 12.0057 11.1289 12.4391C11.2152 12.8725 11.1709 13.3218 11.0018 13.7301C10.8327 14.1383 10.5463 14.4873 10.1789 14.7328C9.81141 14.9783 9.37942 15.1094 8.9375 15.1094C8.34491 15.1094 7.77659 14.874 7.35756 14.4549C6.93853 14.0359 6.70312 13.4676 6.70312 12.875ZM18.7344 17.6875C18.7344 17.7331 18.7163 17.7768 18.684 17.809C18.6518 17.8413 18.6081 17.8594 18.5625 17.8594H13.6013C13.0001 16.7802 12.0444 15.942 10.896 15.4866C11.4445 15.0755 11.8498 14.5022 12.0543 13.848C12.2589 13.1937 12.2524 12.4917 12.0357 11.8413C11.819 11.191 11.4032 10.6253 10.8472 10.2244C10.2911 9.82358 9.62299 9.60787 8.9375 9.60787C8.25201 9.60787 7.5839 9.82358 7.02784 10.2244C6.47177 10.6253 6.05595 11.191 5.83929 11.8413C5.62262 12.4917 5.61611 13.1937 5.82066 13.848C6.02521 14.5022 6.43046 15.0755 6.97898 15.4866C5.83062 15.942 4.87491 16.7802 4.27367 17.8594H3.4375C3.39192 17.8594 3.3482 17.8413 3.31597 17.809C3.28373 17.7768 3.26562 17.7331 3.26562 17.6875V5.3125C3.26562 5.26692 3.28373 5.2232 3.31597 5.19097C3.3482 5.15873 3.39192 5.14062 3.4375 5.14062H18.5625C18.6081 5.14062 18.6518 5.15873 18.684 5.19097C18.7163 5.2232 18.7344 5.26692 18.7344 5.3125V17.6875ZM17.0156 7.375V15.625C17.0156 15.7618 16.9613 15.8929 16.8646 15.9896C16.7679 16.0863 16.6368 16.1406 16.5 16.1406H15.125C14.9882 16.1406 14.8571 16.0863 14.7604 15.9896C14.6637 15.8929 14.6094 15.7618 14.6094 15.625C14.6094 15.4882 14.6637 15.3571 14.7604 15.2604C14.8571 15.1637 14.9882 15.1094 15.125 15.1094H15.9844V7.89062H6.01562V8.75C6.01562 8.88675 5.9613 9.0179 5.8646 9.1146C5.7679 9.2113 5.63675 9.26562 5.5 9.26562C5.36325 9.26562 5.2321 9.2113 5.1354 9.1146C5.0387 9.0179 4.98438 8.88675 4.98438 8.75V7.375C4.98438 7.23825 5.0387 7.1071 5.1354 7.0104C5.2321 6.9137 5.36325 6.85938 5.5 6.85938H16.5C16.6368 6.85938 16.7679 6.9137 16.8646 7.0104C16.9613 7.1071 17.0156 7.23825 17.0156 7.375Z" fill="#34A866"/>
</g>
</svg>
