<svg width="15" height="16" viewBox="0 0 15 16" fill="none" xmlns="http://www.w3.org/2000/svg">
<g id="material-symbols:print-rounded">
<path id="Vector" d="M5 13.625C4.65625 13.625 4.36208 13.5027 4.1175 13.2581C3.87292 13.0135 3.75042 12.7192 3.75 12.375V11.125H2.5C2.15625 11.125 1.86208 11.0027 1.6175 10.7581C1.37292 10.5135 1.25042 10.2192 1.25 9.875V7.375C1.25 6.84375 1.43229 6.39854 1.79688 6.03938C2.16146 5.68021 2.60417 5.50042 3.125 5.5H11.875C12.4062 5.5 12.8517 5.67979 13.2113 6.03938C13.5708 6.39896 13.7504 6.84417 13.75 7.375V9.875C13.75 10.2188 13.6277 10.5131 13.3831 10.7581C13.1385 11.0031 12.8442 11.1254 12.5 11.125H11.25V12.375C11.25 12.7188 11.1277 13.0131 10.8831 13.2581C10.6385 13.5031 10.3442 13.6254 10 13.625H5ZM11.25 4.875H3.75V3.625C3.75 3.28125 3.8725 2.98708 4.1175 2.7425C4.3625 2.49792 4.65667 2.37542 5 2.375H10C10.3438 2.375 10.6381 2.4975 10.8831 2.7425C11.1281 2.9875 11.2504 3.28167 11.25 3.625V4.875ZM11.25 8.3125C11.4271 8.3125 11.5756 8.2525 11.6956 8.1325C11.8156 8.0125 11.8754 7.86417 11.875 7.6875C11.8746 7.51083 11.8146 7.3625 11.695 7.2425C11.5754 7.1225 11.4271 7.0625 11.25 7.0625C11.0729 7.0625 10.9246 7.1225 10.805 7.2425C10.6854 7.3625 10.6254 7.51083 10.625 7.6875C10.6246 7.86417 10.6846 8.01271 10.805 8.13313C10.9254 8.25354 11.0737 8.31333 11.25 8.3125ZM5 12.375H10V9.875H5V12.375Z" fill="#283897"/>
</g>
</svg>
