<svg width="24" height="24" viewBox="0 0 24 24" fill="none" xmlns="http://www.w3.org/2000/svg">
<g id="material-symbols-light:print-outline-rounded">
<path id="Vector" d="M8.61615 19.9993C8.17148 19.9993 7.79115 19.8409 7.47515 19.5243C7.15915 19.2076 7.00082 18.8279 7.00015 18.3853V15.9993H5.19215C4.74815 15.9993 4.36815 15.8409 4.05215 15.5243C3.73615 15.2076 3.57782 14.8276 3.57715 14.3843V10.6143C3.57715 10.0476 3.76948 9.57295 4.15415 9.19028C4.53882 8.80628 5.01315 8.61428 5.57715 8.61428H18.4231C18.9898 8.61428 19.4648 8.80628 19.8481 9.19028C20.2315 9.57428 20.4231 10.0489 20.4231 10.6143V14.3843C20.4231 14.8283 20.2651 15.2083 19.9491 15.5243C19.6331 15.8403 19.2528 15.9986 18.8081 15.9993H17.0001V18.3843C17.0001 18.8283 16.8418 19.2083 16.5251 19.5243C16.2085 19.8403 15.8285 19.9986 15.3851 19.9993H8.61615ZM5.19215 14.9993H7.00015C7.02615 14.5773 7.19348 14.2153 7.50215 13.9133C7.81081 13.6119 8.18215 13.4613 8.61615 13.4613H15.3851C15.8185 13.4613 16.1895 13.6123 16.4981 13.9143C16.8068 14.2156 16.9741 14.5773 17.0001 14.9993H18.8081C18.9875 14.9993 19.1348 14.9416 19.2501 14.8263C19.3655 14.7109 19.4231 14.5636 19.4231 14.3843V10.6143C19.4231 10.3316 19.3275 10.0943 19.1361 9.90228C18.9448 9.71028 18.7071 9.61428 18.4231 9.61428H5.57715C5.29382 9.61428 5.05648 9.71028 4.86515 9.90228C4.67382 10.0943 4.57782 10.3319 4.57715 10.6153V14.3843C4.57715 14.5636 4.63482 14.7109 4.75015 14.8263C4.86548 14.9416 5.01282 14.9993 5.19215 14.9993ZM16.0001 8.61528V6.22928C16.0001 6.04928 15.9425 5.90195 15.8271 5.78728C15.7118 5.67195 15.5645 5.61428 15.3851 5.61428H8.61515C8.43582 5.61428 8.28848 5.67195 8.17315 5.78728C8.05782 5.90261 8.00015 6.04995 8.00015 6.22928V8.61428H7.00015V6.22928C7.00015 5.78528 7.15848 5.40495 7.47515 5.08828C7.79115 4.77161 8.17115 4.61328 8.61515 4.61328H15.3851C15.8291 4.61328 16.2091 4.77161 16.5251 5.08828C16.8418 5.40495 17.0001 5.78495 17.0001 6.22828V8.61428L16.0001 8.61528ZM17.6161 12.1153C17.8995 12.1153 18.1368 12.0193 18.3281 11.8273C18.5195 11.6353 18.6155 11.3979 18.6161 11.1153C18.6168 10.8326 18.5208 10.5949 18.3281 10.4023C18.1355 10.2096 17.8981 10.1136 17.6161 10.1143C17.3341 10.1149 17.0965 10.2109 16.9031 10.4023C16.7098 10.5936 16.6141 10.8313 16.6161 11.1153C16.6181 11.3993 16.7138 11.6366 16.9031 11.8273C17.0925 12.0179 17.3301 12.1139 17.6161 12.1153ZM16.0001 18.3833V15.0763C16.0001 14.8963 15.9425 14.7486 15.8271 14.6333C15.7118 14.5179 15.5645 14.4603 15.3851 14.4603H8.61515C8.43582 14.4603 8.28848 14.5179 8.17315 14.6333C8.05782 14.7493 8.00015 14.8969 8.00015 15.0763V18.3843C8.00015 18.5636 8.05782 18.7109 8.17315 18.8263C8.28848 18.9416 8.43615 18.9993 8.61615 18.9993H15.3851C15.5645 18.9993 15.7118 18.9416 15.8271 18.8263C15.9425 18.7109 16.0001 18.5633 16.0001 18.3833ZM5.19215 9.61528H4.57715H19.4231H5.19215Z" fill="#283897"/>
</g>
</svg>
