<svg width="24" height="24" viewBox="0 0 24 24" fill="none" xmlns="http://www.w3.org/2000/svg">
<g id="akar-icons:edit">
<rect width="24" height="24" rx="4" fill="#283897"/>
<g id="Group">
<path id="Vector" d="M15.5391 6.84117L17.1578 8.45995M16.5798 5.41508L12.2005 9.79429C11.9736 10.0197 11.8192 10.3078 11.757 10.6216L11.3525 12.6465L13.3774 12.2412C13.6909 12.1785 13.9784 12.0248 14.2047 11.7985L18.5839 7.41925C18.7155 7.28766 18.8199 7.13143 18.8911 6.95949C18.9624 6.78755 18.999 6.60327 18.999 6.41716C18.999 6.23106 18.9624 6.04678 18.8911 5.87484C18.8199 5.7029 18.7155 5.54667 18.5839 5.41508C18.4523 5.28348 18.2961 5.17909 18.1242 5.10788C17.9522 5.03666 17.7679 5 17.5818 5C17.3957 5 17.2115 5.03666 17.0395 5.10788C16.8676 5.17909 16.7114 5.28348 16.5798 5.41508Z" stroke="white" stroke-width="1.2" stroke-linecap="round" stroke-linejoin="round"/>
<path id="Vector_2" d="M17.4699 14.1778V16.4718C17.4699 16.8774 17.3088 17.2664 17.022 17.5532C16.7352 17.84 16.3462 18.0011 15.9406 18.0011H7.52932C7.12372 18.0011 6.73473 17.84 6.44793 17.5532C6.16112 17.2664 6 16.8774 6 16.4718V8.06057C6 7.65497 6.16112 7.26598 6.44793 6.97918C6.73473 6.69237 7.12372 6.53125 7.52932 6.53125H9.8233" stroke="white" stroke-width="1.2" stroke-linecap="round" stroke-linejoin="round"/>
</g>
</g>
</svg>
