<svg width="90" height="90" viewBox="0 0 90 90" fill="none" xmlns="http://www.w3.org/2000/svg">
<g id="mdi:user">
<rect x="0.5" y="0.5" width="89" height="89" rx="44.5" stroke="#E0E0E0"/>
<path id="Vector" d="M44.5 23C47.4837 23 50.3452 24.1853 52.455 26.295C54.5647 28.4048 55.75 31.2663 55.75 34.25C55.75 37.2337 54.5647 40.0952 52.455 42.205C50.3452 44.3147 47.4837 45.5 44.5 45.5C41.5163 45.5 38.6548 44.3147 36.545 42.205C34.4353 40.0952 33.25 37.2337 33.25 34.25C33.25 31.2663 34.4353 28.4048 36.545 26.295C38.6548 24.1853 41.5163 23 44.5 23ZM44.5 51.125C56.9313 51.125 67 56.1594 67 62.375V68H22V62.375C22 56.1594 32.0688 51.125 44.5 51.125Z" fill="#D5D5D5"/>
</g>
</svg>
